<svg xmlns="http://www.w3.org/2000/svg" width="27.673" height="26.483" viewBox="0 0 27.673 26.483">
  <g id="top_career_paths_" data-name="top career paths " transform="translate(0 -0.5)">
    <path id="Path_87946" data-name="Path 87946" d="M27.672,68.606a5.221,5.221,0,0,1-5.216,5.216H12.35V71.66H22.457a3.054,3.054,0,0,0,0-6.107H5.216a5.216,5.216,0,1,1,0-10.431H20.223a2.7,2.7,0,1,1,1.936,3.729,5.334,5.334,0,0,1-1.081-.487,2.712,2.712,0,0,1-.856-1.081H5.216a3.054,3.054,0,0,0,0,6.107H22.457A5.221,5.221,0,0,1,27.672,68.606Zm0,0" transform="translate(0 -50.135)" fill="#83c124"/>
    <path id="Path_87947" data-name="Path 87947" d="M44.324,71.31a2.162,2.162,0,1,1-2.162-2.162A2.162,2.162,0,0,1,44.324,71.31ZM42.162,61.04A2.162,2.162,0,1,0,44.324,63.2,2.162,2.162,0,0,0,42.162,61.04ZM60,73.471a2.162,2.162,0,1,0-2.162-2.162A2.162,2.162,0,0,0,60,73.471ZM60,77.2a2.162,2.162,0,1,0,2.162,2.162A2.162,2.162,0,0,0,60,77.2ZM50.81,60.5a2.162,2.162,0,1,0,2.162,2.162A2.162,2.162,0,0,0,50.81,60.5Zm0,16.7a2.162,2.162,0,1,0,2.162,2.162A2.162,2.162,0,0,0,50.81,77.2Zm0-8.053a2.162,2.162,0,1,0,2.162,2.162A2.162,2.162,0,0,0,50.81,69.148Zm0,0" transform="translate(-37.838 -56.757)" fill="#faab29"/>
    <path id="Path_87948" data-name="Path 87948" d="M74.519,85.711l-1.068.69a.162.162,0,0,1-.25-.136V84.885a.162.162,0,0,1,.25-.136l1.068.69A.162.162,0,0,1,74.519,85.711Zm0,16.7-1.068.69a.162.162,0,0,1-.25-.136v-1.381a.162.162,0,0,1,.25-.136l1.068.69A.162.162,0,0,1,74.519,102.412Zm7.789-8.325,1.068-.69a.162.162,0,0,1,.25.136v1.381a.162.162,0,0,1-.25.136l-1.068-.69A.162.162,0,0,1,82.308,94.087Zm-17.991,0,1.068-.69a.162.162,0,0,1,.25.136v1.381a.162.162,0,0,1-.25.136l-1.068-.69A.162.162,0,0,1,64.316,94.087Zm0,0" transform="translate(-60.77 -79.67)" fill="#f1f2f2"/>
    <path id="Path_87949" data-name="Path 87949" d="M391.081,40.5v6.053A2.689,2.689,0,0,1,390,46.067V40.5Zm0,0" transform="translate(-368.921 -37.838)" fill="#8d6993"/>
    <path id="Path_87950" data-name="Path 87950" d="M396.539.932l-1.3,1.73,1.3,1.73a.27.27,0,0,1-.216.432H390V.77a.27.27,0,0,1,.27-.27h6.053A.27.27,0,0,1,396.539.932Zm0,0" transform="translate(-368.921)" fill="#873694"/>
    <path id="Path_87951" data-name="Path 87951" d="M391.081,4.824H390V.77a.27.27,0,0,1,.27-.27h.811Zm0,0" transform="translate(-368.921)" fill="#682872"/>
    <path id="Path_87952" data-name="Path 87952" d="M62.668,298.765v-2.583a1.645,1.645,0,0,1,1.168-1.572,6.245,6.245,0,0,1,3.529,0,1.645,1.645,0,0,1,1.168,1.572v2.583h-.938v-2.583a.7.7,0,0,0-.5-.672,5.309,5.309,0,0,0-3,0,.7.7,0,0,0-.5.672v2.583Zm0,0" transform="translate(-59.281 -277.973)" fill="#934a4a"/>
    <path id="Path_87953" data-name="Path 87953" d="M77.364,290.848l-.708.708a.234.234,0,0,1-.23.06,5.074,5.074,0,0,0-2.771,0,.232.232,0,0,1-.064.009.235.235,0,0,1-.166-.069l-.708-.708a.234.234,0,0,1,.042-.365,1.844,1.844,0,0,1,.451-.2,6.483,6.483,0,0,1,3.662,0,1.837,1.837,0,0,1,.451.2.234.234,0,0,1,.042.365Zm0,0" transform="translate(-68.722 -273.868)" fill="#873694"/>
    <path id="Path_87954" data-name="Path 87954" d="M26.85,297.042a6.759,6.759,0,0,1,.77-.189l-.076-.282a.188.188,0,0,1,.133-.23l.09-.024a.188.188,0,0,1,.23.133l.089.333q.264-.03.53-.039v-.333a.188.188,0,0,1,.188-.188H28.9a.188.188,0,0,1,.188.188v.333c.177.006.354.019.53.039l.089-.333a.188.188,0,0,1,.23-.133l.09.024a.188.188,0,0,1,.133.23l-.076.282a6.756,6.756,0,0,1,.77.189l-.386.386a.235.235,0,0,1-.23.06,5.068,5.068,0,0,0-2.771,0,.231.231,0,0,1-.064.009.234.234,0,0,1-.166-.069Zm6.563,1.472H24.289a.484.484,0,0,0-.469.5v7.213a.484.484,0,0,0,.469.5h9.124a.484.484,0,0,0,.469-.5v-7.213A.484.484,0,0,0,33.414,298.514Zm0,0" transform="translate(-22.533 -279.74)" fill="#682872"/>
    <path id="Path_87955" data-name="Path 87955" d="M49.643,340.539v5.818a.469.469,0,0,1-.469.469H40.95a.469.469,0,0,1-.469-.469v-3.341a.27.27,0,0,1,.4-.234,2.564,2.564,0,0,0,1.275.338h4.9A2.58,2.58,0,0,0,49.643,340.539Zm-.469-1.922h-8.14a.541.541,0,0,0-.54.538l-.011,2.278a.543.543,0,0,0,.24.452,2.566,2.566,0,0,0,1.438.439h4.9a2.58,2.58,0,0,0,2.58-2.58v-.658A.469.469,0,0,0,49.174,338.617Zm0,0" transform="translate(-38.293 -319.843)" fill="#873694"/>
    <path id="Path_87956" data-name="Path 87956" d="M63.606,399.529h-.121a.469.469,0,0,1-.469-.469v-1.415a.235.235,0,0,1,.235-.235h.59a.235.235,0,0,1,.235.235v1.415A.469.469,0,0,1,63.606,399.529Zm5.235-.469v-1.415a.234.234,0,0,0-.235-.235h-.59a.235.235,0,0,0-.235.235v1.415a.469.469,0,0,0,.469.469h.121A.469.469,0,0,0,68.841,399.059Zm0,0" transform="translate(-59.61 -375.458)" fill="#fcae51"/>
    <path id="Path_87957" data-name="Path 87957" d="M70.144,397.41H70.3a.265.265,0,0,1,.265.265V399a.367.367,0,1,1-.688,0v-1.324A.265.265,0,0,1,70.144,397.41Zm4.5.265V399a.367.367,0,1,0,.688,0v-1.324a.265.265,0,0,0-.265-.265H74.91A.265.265,0,0,0,74.645,397.675Zm0,0" transform="translate(-66.102 -375.458)" fill="#ffdc85"/>
  </g>
</svg>
