<svg xmlns="http://www.w3.org/2000/svg" width="11.623" height="13.284" viewBox="0 0 11.623 13.284">
  <path id="Calendar" d="M0,12.038a1.246,1.246,0,0,0,1.245,1.245h9.132a1.246,1.246,0,0,0,1.245-1.245V4.981H0ZM1.66,7.057a.416.416,0,0,1,.415-.415H4.566a.416.416,0,0,1,.415.415V9.548a.416.416,0,0,1-.415.415H2.076a.416.416,0,0,1-.415-.415Zm8.717-5.4H9.132V.415A.416.416,0,0,0,8.717,0h-.83a.416.416,0,0,0-.415.415V1.66H4.151V.415A.416.416,0,0,0,3.736,0h-.83a.416.416,0,0,0-.415.415V1.66H1.245A1.246,1.246,0,0,0,0,2.906V4.151H11.623V2.906A1.246,1.246,0,0,0,10.378,1.66Z" fill="#5d676e"/>
</svg>
