<svg xmlns="http://www.w3.org/2000/svg" xmlns:xlink="http://www.w3.org/1999/xlink" width="108.062" height="88.051" viewBox="0 0 108.062 88.051">
  <defs>
    <linearGradient id="linear-gradient" x1="0.5" y1="1" x2="0.5" gradientUnits="objectBoundingBox">
      <stop offset="0" stop-color="gray" stop-opacity="0.251"/>
      <stop offset="0.54" stop-color="gray" stop-opacity="0.122"/>
      <stop offset="1" stop-color="gray" stop-opacity="0.102"/>
    </linearGradient>
  </defs>
  <g id="Group_15952" data-name="Group 15952" transform="translate(0 0)" opacity="0.8" style="mix-blend-mode: normal;isolation: isolate">
    <path id="Path_13253" data-name="Path 13253" d="M903.362,259.456s-4.126-.249-3.644,2.646a.706.706,0,0,0,.367.744s.008-.217.423-.142a1.911,1.911,0,0,0,.45.022.933.933,0,0,0,.543-.226h0a3.276,3.276,0,0,0,1.613-2.378s.334-.414.326-.52l-.7.3a1.253,1.253,0,0,1,.051.921s-.023-.9-.156-.882c-.027,0-.363.175-.363.175a2.065,2.065,0,0,1,.1,1.513s.117-1.079-.229-1.45l-.491.287a2.166,2.166,0,0,1,.154,1.643,3.079,3.079,0,0,0-.257-1.573l-.444.347a2.118,2.118,0,0,1,.175,1.5s-.036-1.318-.271-1.418a2.722,2.722,0,0,0-.448.484s.308.651.117.989c0,0-.117-.878-.217-.883a2.922,2.922,0,0,0-.428.977,2.108,2.108,0,0,1,.334-1.036,1.168,1.168,0,0,0-.594.307s.061-.412.69-.447a2.713,2.713,0,0,1,.406-.469,2.552,2.552,0,0,0-1.005.116,1.139,1.139,0,0,1,1.12-.217l.434-.358a3.748,3.748,0,0,0-1.173.012,1.428,1.428,0,0,1,1.291-.093l.478-.286a4.349,4.349,0,0,0-1.121-.1,1.72,1.72,0,0,1,1.261.02l.342-.153s-.515-.1-.666-.117-.159-.058-.159-.058a1.779,1.779,0,0,1,.966.109A4.384,4.384,0,0,0,903.362,259.456Z" transform="translate(-811.667 -236.062)" fill="#6c63ff" opacity="0.1"/>
    <path id="Path_13255" data-name="Path 13255" d="M809.361,191.3s-1.8-3.728-4.087-1.89a.707.707,0,0,0-.47.683s.191-.1.326.3a1.88,1.88,0,0,0,.2.4.932.932,0,0,0,.465.368h0a3.28,3.28,0,0,0,2.862.249,1.866,1.866,0,0,0,.611.026l-.6-.465a1.26,1.26,0,0,1-.779.494s.776-.46.693-.567c-.017-.022-.326-.231-.326-.231a2.058,2.058,0,0,1-1.272.825s1-.423,1.154-.906l-.5-.287a2.167,2.167,0,0,1-1.359.936s1.029-.48,1.249-.992l-.52-.217s-.559.828-1.227.887c0,0,1.133-.674,1.1-.928a2.684,2.684,0,0,0-.641-.155s-.415.584-.807.584c0,0,.71-.531.667-.617a2.871,2.871,0,0,0-1.065.109,2.113,2.113,0,0,1,1.067-.217,1.162,1.162,0,0,0-.557-.368s.389-.148.727.383a2.688,2.688,0,0,1,.607.127,2.541,2.541,0,0,0-.592-.821s.5.1.731.874l.528.208a3.621,3.621,0,0,0-.582-1.019s.5.184.71,1.086l.483.278a4.337,4.337,0,0,0-.463-1.025,1.715,1.715,0,0,1,.6,1.11l.3.224s-.162-.5-.217-.637-.027-.166-.027-.166a1.787,1.787,0,0,1,.377.9A4.17,4.17,0,0,0,809.361,191.3Z" transform="translate(-727.077 -173.152)" fill="#6c63ff" opacity="0.1"/>
    <path id="Path_13256" data-name="Path 13256" d="M862.224,361.1s-1.8-3.729-4.09-1.892a.707.707,0,0,0-.47.683s.191-.1.326.3a1.88,1.88,0,0,0,.2.4.932.932,0,0,0,.465.368h0a3.277,3.277,0,0,0,2.863.249s.523.09.61.026l-.6-.464a1.26,1.26,0,0,1-.78.494s.776-.46.693-.567c-.017-.022-.326-.231-.326-.231a2.062,2.062,0,0,1-1.271.826s1-.425,1.154-.907l-.49-.289a2.163,2.163,0,0,1-1.359.936s1.029-.48,1.249-.992l-.52-.217s-.559.827-1.227.887c0,0,1.134-.674,1.105-.93a2.7,2.7,0,0,0-.642-.155s-.415.584-.807.584c0,0,.71-.531.667-.617a2.872,2.872,0,0,0-1.065.109,2.121,2.121,0,0,1,1.068-.217,1.161,1.161,0,0,0-.558-.368s.389-.149.726.383a2.676,2.676,0,0,1,.607.126,2.561,2.561,0,0,0-.591-.821s.5.1.731.874l.527.208a3.607,3.607,0,0,0-.582-1.017s.5.182.71,1.086l.483.277a4.337,4.337,0,0,0-.463-1.025,1.719,1.719,0,0,1,.6,1.111l.3.217s-.163-.5-.217-.637-.027-.166-.027-.166a1.775,1.775,0,0,1,.377.9A4.386,4.386,0,0,0,862.224,361.1Z" transform="translate(-774.201 -324.568)" fill="#6c63ff" opacity="0.1"/>
    <ellipse id="Ellipse_1295" data-name="Ellipse 1295" cx="2.496" cy="0.279" rx="2.496" ry="0.279" transform="translate(23.119 87.493)" fill="#6c63ff" opacity="0.1"/>
    <ellipse id="Ellipse_1296" data-name="Ellipse 1296" cx="2.496" cy="0.279" rx="2.496" ry="0.279" transform="translate(86.996 80.631)" fill="#6c63ff" opacity="0.1"/>
    <ellipse id="Ellipse_1297" data-name="Ellipse 1297" cx="2.496" cy="0.279" rx="2.496" ry="0.279" transform="translate(75.012 79.277)" fill="#6c63ff" opacity="0.1"/>
    <ellipse id="Ellipse_1298" data-name="Ellipse 1298" cx="2.952" cy="0.507" rx="2.952" ry="0.507" transform="translate(52.358 85.425)" fill="#6c63ff" opacity="0.1"/>
    <path id="Path_13257" data-name="Path 13257" d="M669.855,790.14s-4.111,2.124-1.987,4.626a.794.794,0,0,0,.777.5s-.115-.211.326-.379a2.124,2.124,0,0,0,.444-.236,1.044,1.044,0,0,0,.4-.531h0a3.666,3.666,0,0,0,.189-3.206,2.063,2.063,0,0,0,.011-.684l-.5.685a1.4,1.4,0,0,1,.576.856s-.543-.855-.651-.76c-.024.02-.248.375-.248.375a2.3,2.3,0,0,1,.961,1.4s-.5-1.1-1.048-1.262l-.312.556a2.415,2.415,0,0,1,1.086,1.49s-.568-1.135-1.148-1.364l-.229.587s.942.6,1.029,1.344c0,0-.788-1.245-1.072-1.206a3.006,3.006,0,0,0-.154.722s.666.445.677.883c0,0-.615-.776-.709-.725a3.272,3.272,0,0,0,.15,1.187,2.343,2.343,0,0,1-.273-1.187,1.3,1.3,0,0,0-.394.634s-.177-.429.406-.824a3,3,0,0,1,.123-.682,2.863,2.863,0,0,0-.9.686s.1-.564.954-.844l.217-.6a4.046,4.046,0,0,0-1.12.682s.19-.559,1.187-.827l.3-.543a4.98,4.98,0,0,0-1.131.543,1.923,1.923,0,0,1,1.223-.7l.24-.342s-.552.2-.706.267-.185.036-.185.036a2,2,0,0,1,.989-.45A4.835,4.835,0,0,0,669.855,790.14Z" transform="translate(-591.245 -709.305)" fill="#83c124"/>
    <path id="Path_13259" data-name="Path 13259" d="M686.65,255.062s1.661,4.343,2.606,3.909.688-2.28.869-2.786.38-4.343.38-4.343a26.262,26.262,0,0,1,.271-3.264,29.915,29.915,0,0,0,.326-3.452v-.053l-.179-3.149-1.014-.253-2.352.869-.326,1.86-.127.726-.054.309Z" transform="translate(-621.747 -220.219)" fill="#be6f72"/>
    <path id="Path_13260" data-name="Path 13260" d="M691.69,358.3a11.664,11.664,0,0,0,2.063,1.412c.478.114.771,1.126.771,1.126" transform="translate(-626.24 -324.208)" opacity="0.1"/>
    <path id="Path_13285" data-name="Path 13285" d="M698.556,427s-3.873.586-4.6,1.382" transform="translate(-628.264 -385.468)" opacity="0.1"/>
    <path id="Path_13286" data-name="Path 13286" d="M695.574,492.849h-.17a29.214,29.214,0,0,0-3.087,0c-.47.109-6.7,0-6.7,0l1.217-.253s-.452-1.583-.165-1.715c0,0-1.629-1.073-.4-1.8a3.81,3.81,0,0,1,2.552-.419l3.083-1.045.592-.2s3.475.181,4.415,2.57A1.935,1.935,0,0,1,695.574,492.849Z" transform="translate(-620.831 -439.353)" fill="#e7c7ca"/>
    <path id="Path_13287" data-name="Path 13287" d="M747.178,492.894h-.17c1.011-.834,3.3-3.373-3.5-5.223l.592-.2s3.475.181,4.415,2.57A1.929,1.929,0,0,1,747.178,492.894Z" transform="translate(-672.437 -439.397)" opacity="0.1"/>
    <ellipse id="Ellipse_1300" data-name="Ellipse 1300" cx="0.19" cy="0.19" rx="0.19" ry="0.19" transform="translate(68.166 50.304)" fill="#4b4b5b"/>
    <ellipse id="Ellipse_1301" data-name="Ellipse 1301" cx="0.19" cy="0.19" rx="0.19" ry="0.19" transform="translate(67.063 50.617)" fill="#4b4b5b"/>
    <path id="Path_13294" data-name="Path 13294" d="M695.31,507.819a3.842,3.842,0,0,0,4.561-1.4" transform="translate(-629.467 -456.289)" fill="none" stroke="#000" stroke-width="1" opacity="0.1"/>
    <path id="Path_13295" data-name="Path 13295" d="M700.29,532.417a5.358,5.358,0,0,1,5.1-.048" transform="translate(-633.907 -478.878)" fill="none" stroke="#000" stroke-width="1" opacity="0.1"/>
    <path id="Path_13314" data-name="Path 13314" d="M707.15,364.94s1.037.667,1.033,1.464" transform="translate(-640.021 -330.128)" opacity="0.1"/>
    <g id="Group_15951" data-name="Group 15951" transform="translate(0 0)">
      <path id="Path_13184" data-name="Path 13184" d="M100.019,429.832l-37.166-.181-3.693-8.662,13.058-.948-2.276-9.5L95.77,407.2l-24.732-8.6,2.185-.519,39.769,6.488-2.19,14.821-3.13,8.145Z" transform="translate(-52.736 -355.101)" fill="#83c124"/>
      <path id="Path_13185" data-name="Path 13185" d="M187,698.549a4.264,4.264,0,0,1,3.648,1.246s-1,.791-3.162-.3Z" transform="translate(-176.313 -627.627)" fill="#6c63ff"/>
      <path id="Path_13186" data-name="Path 13186" d="M177.109,698.51a4.252,4.252,0,0,0-.738,3.784s1.186-.474,1.315-2.892Z" transform="translate(-166.661 -627.624)" fill="#6c63ff"/>
      <path id="Path_13187" data-name="Path 13187" d="M172.76,666.646s.912-1.673,4.561.669a2.048,2.048,0,0,1-2.1,1.034A2.473,2.473,0,0,1,172.76,666.646Z" transform="translate(-163.62 -598.659)" fill="#6c63ff"/>
      <path id="Path_13188" data-name="Path 13188" d="M153.546,670.275s-1.893-.217-2.076,4.115a2.048,2.048,0,0,0,2.052-1.122A2.469,2.469,0,0,0,153.546,670.275Z" transform="translate(-144.641 -602.414)" fill="#6c63ff"/>
      <path id="Path_13189" data-name="Path 13189" d="M160.44,625.287s1.064-2.949,4.925-.851c0,0-.882,2.706-4.53,1.855Z" transform="translate(-152.637 -560.863)" fill="#83c124"/>
      <path id="Path_13190" data-name="Path 13190" d="M149.52,586.44s2.007-2.979,5.564-.217c0,0-1.247,2.8-5.26,1.277Z" transform="translate(-142.902 -526.414)" fill="#83c124"/>
      <path id="Path_13191" data-name="Path 13191" d="M145.6,549.232s2.341-2.737,5.864,0a5.01,5.01,0,0,1-5.864.7Z" transform="translate(-139.408 -493.388)" fill="#83c124"/>
      <path id="Path_13192" data-name="Path 13192" d="M142.24,510.883s2.371-2.858,5.746-.152c0,0-2.675,2.524-5.746.821Z" transform="translate(-136.414 -459.101)" fill="#83c124"/>
      <path id="Path_13193" data-name="Path 13193" d="M144.2,471.521s2.5-3.679,5.655-1.186c0,0-2.675,3.162-5.655,1.885Z" transform="translate(-138.161 -423.346)" fill="#83c124"/>
      <path id="Path_13194" data-name="Path 13194" d="M149.52,433.8s2.645-3.648,5.716-.851c0,0-3.132,3.162-5.716,1.52Z" transform="translate(-142.902 -389.837)" fill="#83c124"/>
      <path id="Path_13195" data-name="Path 13195" d="M156.517,395.084s3.132-3.429,5.864-2.063c0,0-3.263,3.642-6,2.973Z" transform="translate(-149.018 -354.888)" fill="#83c124"/>
      <path id="Path_13196" data-name="Path 13196" d="M165.616,356.363s3.614-4.2,5.716-2.8c0,0-2.662,3.258-5.972,3.583Z" transform="translate(-157.022 -319.736)" fill="#83c124"/>
      <path id="Path_13197" data-name="Path 13197" d="M178.785,321.153s3.163-3.429,5.474-2.578c0,0-2.706,3.557-5.9,3.648Z" transform="translate(-168.611 -288.668)" fill="#83c124"/>
      <path id="Path_13198" data-name="Path 13198" d="M194.192,284.876s3.5-3.284,5.017-2.706c0,0-2.523,3.648-5.169,3.436Z" transform="translate(-182.589 -256.264)" fill="#83c124"/>
      <path id="Path_13199" data-name="Path 13199" d="M208.32,244.761s3.01-3.923,4.653-3.619c0,0-1.825,3.5-4.653,4.018Z" transform="translate(-195.319 -219.723)" fill="#83c124"/>
      <path id="Path_13200" data-name="Path 13200" d="M221.4,205.43s2.66-3.007,4.1-3c0,0-2.1,4.018-4.208,3.981Z" transform="translate(-206.88 -185.217)" fill="#83c124"/>
      <path id="Path_13201" data-name="Path 13201" d="M227.9,148.983l2.57-6.263s.128,5.662-2.9,7.425Z" transform="translate(-212.478 -131.939)" fill="#83c124"/>
      <path id="Path_13202" data-name="Path 13202" d="M240.047,90.356s.426-5.23.152-5.656c0,0,1.837,4.349-.169,7.967Z" transform="translate(-223.585 -80.219)" fill="#83c124"/>
      <path id="Path_13203" data-name="Path 13203" d="M123.48,635.077s-2.665-1.652-4.39,2.389c0,0,2.371,1.574,4.7-1.358Z" transform="translate(-115.777 -570.728)" fill="#83c124"/>
      <path id="Path_13204" data-name="Path 13204" d="M108.884,594.211s-3.268-1.491-4.854,2.728c0,0,2.525,1.737,5.151-1.661Z" transform="translate(-102.352 -534.357)" fill="#83c124"/>
      <path id="Path_13205" data-name="Path 13205" d="M96.064,551.542s-2.341-2.737-5.864,0a5.01,5.01,0,0,0,5.864.7Z" transform="translate(-90.024 -495.448)" fill="#83c124"/>
      <path id="Path_13206" data-name="Path 13206" d="M94.326,510.883s-2.371-2.858-5.746-.152c0,0,2.676,2.524,5.746.821Z" transform="translate(-88.58 -459.101)" fill="#83c124"/>
      <path id="Path_13207" data-name="Path 13207" d="M100.859,466.415s-1.664-4.121-5.279-2.349c0,0,1.955,3.654,5.132,3.033Z" transform="translate(-94.82 -418.134)" fill="#83c124"/>
      <path id="Path_13208" data-name="Path 13208" d="M107.771,426.577s-1.654-4.192-5.321-2.249c0,0,2.246,3.843,5.158,2.9Z" transform="translate(-100.944 -382.635)" fill="#83c124"/>
      <path id="Path_13209" data-name="Path 13209" d="M130.582,373.738s-.652-4.6-3.692-5.008c0,0,.645,4.847,3.283,5.836Z" transform="translate(-122.73 -333.517)" fill="#83c124"/>
      <path id="Path_13210" data-name="Path 13210" d="M145.708,334.711s-.254-5.538-2.768-5.731c0,0,.085,4.2,2.484,6.515Z" transform="translate(-137.038 -298.07)" fill="#83c124"/>
      <path id="Path_13211" data-name="Path 13211" d="M158.819,299.578s-.749-4.605-3.149-5.168c0,0,.3,4.46,2.911,6.3Z" transform="translate(-148.385 -267.242)" fill="#83c124"/>
      <path id="Path_13212" data-name="Path 13212" d="M184.107,262.832s-.025-4.8-1.491-5.5c0,0-.909,4.343,1.066,6.114Z" transform="translate(-172.22 -234.176)" fill="#83c124"/>
      <path id="Path_13213" data-name="Path 13213" d="M194.711,227.846s-.205-4.939-1.723-5.635c0,0-.519,3.909,1.5,5.959Z" transform="translate(-181.597 -202.857)" fill="#83c124"/>
      <path id="Path_13214" data-name="Path 13214" d="M212.377,192.97s-.009-4.018-1.092-4.96c0,0-1.077,4.4.527,5.768Z" transform="translate(-197.645 -172.359)" fill="#83c124"/>
      <path id="Path_13215" data-name="Path 13215" d="M217.447,143.687,216.393,137s-1.432,5.479,1.1,7.894Z" transform="translate(-202.155 -126.84)" fill="#83c124"/>
      <path id="Path_13216" data-name="Path 13216" d="M209.534,96.365s-2.706-4.5-2.651-4.995c0,0,.288,4.711,3.692,7.058Z" transform="translate(-194.036 -86.164)" fill="#83c124"/>
      <path id="Path_13217" data-name="Path 13217" d="M203.769,68.482s-2.554-6.385-3.709-6.9a8.093,8.093,0,0,1,3.922,6.719Z" transform="translate(-187.955 -59.609)" fill="#83c124"/>
      <path id="Path_13218" data-name="Path 13218" d="M219.735,134.2l-.175-.053c2.155-7.029,2.693-11.51,1.515-12.634l.125-.132C222.449,122.566,221.942,127,219.735,134.2Z" transform="translate(-205.337 -112.916)" fill="#444053"/>
      <path id="Path_13219" data-name="Path 13219" d="M164.388,251.681l-.258-.092c.229-.644.476-1.3.734-1.941,2.25-5.607,4.165-10.824,5.393-14.828l.225-.109c-1.23,4.012-3.112,9.428-5.364,15.043C164.861,250.385,164.615,251.036,164.388,251.681Z" transform="translate(-155.927 -214.015)" fill="#444053"/>
      <path id="Path_13220" data-name="Path 13220" d="M148.179,424.677a35.518,35.518,0,0,1-5.963-10.688,39.544,39.544,0,0,1-2.353-12.246,46.214,46.214,0,0,1,2.808-16.363l.2.239a41.935,41.935,0,0,0-.319,28.232,35.186,35.186,0,0,0,5.9,10.585Z" transform="translate(-134.279 -348.495)" fill="#444053"/>
      <path id="Path_13221" data-name="Path 13221" d="M531.186,670.36a7.455,7.455,0,0,0-.507,7.547l-19.654,8.524-1.886.4-.869-3.8.581-4.8v-2.621Z" transform="translate(-462.698 -602.531)" fill="#d5d6db"/>
      <path id="Path_13222" data-name="Path 13222" d="M59.16,568.349l27.2-4.959,36.044,5.742-22.388,8.06Z" transform="translate(-52.736 -502.461)" fill="#83c124"/>
      <path id="Path_13223" data-name="Path 13223" d="M59.16,568.349l27.2-4.959,36.044,5.742-22.388,8.06Z" transform="translate(-52.736 -502.461)" fill="#f99d27"/>
      <path id="Path_13224" data-name="Path 13224" d="M139.333,652.47s-2.544,4.82.388,9.272l40.339,8.741s-2.5-3.839.129-9.169Z" transform="translate(-132.909 -586.583)" fill="#f99d27"/>
      <path id="Path_13226" data-name="Path 13226" d="M153.505,667.86s-1.454,3.527,0,5.809" transform="translate(-145.879 -600.302)" opacity="0.1"/>
      <path id="Path_13227" data-name="Path 13227" d="M191.649,739.47l22.52-9.61s1.26.271.445,1.194-22.531,9.338-22.531,9.338l-40.773-9.664Z" transform="translate(-144.498 -655.57)" fill="#6c63ff"/>
      <path id="Path_13228" data-name="Path 13228" d="M191.649,739.47l22.52-9.61s1.26.271.445,1.194-22.531,9.338-22.531,9.338l-40.773-9.664Z" transform="translate(-144.498 -655.57)" fill="#f99d27"/>
      <path id="Path_13229" data-name="Path 13229" d="M497.886,742.86s-2.172,2.606,0,6.515" transform="translate(-452.582 -667.158)" opacity="0.1"/>
      <rect id="Rectangle_12979" data-name="Rectangle 12979" width="10.269" height="0.109" transform="translate(46.077 78.907) rotate(-18.45)" opacity="0.1"/>
      <rect id="Rectangle_12980" data-name="Rectangle 12980" width="12.512" height="0.109" transform="translate(46.074 79.781) rotate(-20.82)" opacity="0.1"/>
      <rect id="Rectangle_12981" data-name="Rectangle 12981" width="14.502" height="0.109" transform="translate(46.139 80.812) rotate(-22.26)" opacity="0.1"/>
      <rect id="Rectangle_12982" data-name="Rectangle 12982" width="16.694" height="0.109" transform="translate(46.296 81.721) rotate(-24.31)" opacity="0.1"/>
      <rect id="Rectangle_12983" data-name="Rectangle 12983" width="18.258" height="0.109" transform="matrix(0.916, -0.401, 0.401, 0.916, 46.417, 82.163)" opacity="0.1"/>
      <rect id="Rectangle_12984" data-name="Rectangle 12984" width="21.849" height="0.109" transform="translate(46.67 82.905) rotate(-23.36)" opacity="0.1"/>
      <path id="Path_13230" data-name="Path 13230" d="M152.23,580.958l19.111-4.018,11.642,2.226-15.66,5.049Z" transform="translate(-135.7 -514.492)" fill="#fff" opacity="0.3"/>
      <path id="Path_13231" data-name="Path 13231" d="M546.391,659.69s.988.4.408,1.014S524,667.75,524,667.75Z" transform="translate(-476.721 -593.019)" fill="#e08d23"/>
      <path id="Path_13232" data-name="Path 13232" d="M630.484,574.18a7.455,7.455,0,0,0-.506,7.547l-19.654,8.524-1.886.4-.869-3.8.59-4.8v-2.625Z" transform="translate(-551.216 -516.794)" fill="#d5d6db"/>
      <path id="Path_13233" data-name="Path 13233" d="M158.46,472.168l27.2-4.958,36.046,5.742-22.388,8.06Z" transform="translate(-141.254 -416.654)" fill="#3a3768"/>
      <path id="Path_13234" data-name="Path 13234" d="M238.587,556.29s-2.545,4.82.387,9.272l40.339,8.741s-2.5-3.843.134-9.17Z" transform="translate(-221.385 -500.847)" fill="#3a3768"/>
      <path id="Path_13235" data-name="Path 13235" d="M238.587,556.29s-2.545,4.82.387,9.272l40.339,8.741s-2.5-3.843.134-9.17l-12.756-2.761Z" transform="translate(-221.385 -500.847)" opacity="0.1"/>
      <path id="Path_13236" data-name="Path 13236" d="M252.8,571.68s-1.453,3.526,0,5.809" transform="translate(-234.392 -514.498)" opacity="0.1"/>
      <path id="Path_13237" data-name="Path 13237" d="M290.939,643.29l22.521-9.61s1.258.271.444,1.194-22.531,9.338-22.531,9.338L250.6,634.549Z" transform="translate(-233.007 -569.834)" fill="#3a3768"/>
      <path id="Path_13238" data-name="Path 13238" d="M290.939,643.29l22.521-9.61s1.258.271.444,1.194-22.531,9.338-22.531,9.338L250.6,634.549Z" transform="translate(-233.007 -569.834)" opacity="0.1"/>
      <path id="Path_13239" data-name="Path 13239" d="M597.176,646.68s-2.172,2.606,0,6.515" transform="translate(-541.09 -581.381)" opacity="0.1"/>
      <rect id="Rectangle_12985" data-name="Rectangle 12985" width="10.269" height="0.109" transform="translate(56.86 68.514) rotate(-18.45)" opacity="0.1"/>
      <rect id="Rectangle_12986" data-name="Rectangle 12986" width="12.512" height="0.109" transform="translate(56.857 69.386) rotate(-20.82)" opacity="0.1"/>
      <rect id="Rectangle_12987" data-name="Rectangle 12987" width="14.502" height="0.109" transform="translate(56.922 70.412) rotate(-22.26)" opacity="0.1"/>
      <rect id="Rectangle_12988" data-name="Rectangle 12988" width="16.694" height="0.109" transform="translate(57.079 71.319) rotate(-24.31)" opacity="0.1"/>
      <rect id="Rectangle_12989" data-name="Rectangle 12989" width="18.258" height="0.109" transform="matrix(0.916, -0.401, 0.401, 0.916, 57.198, 71.758)" opacity="0.1"/>
      <rect id="Rectangle_12990" data-name="Rectangle 12990" width="21.849" height="0.109" transform="translate(57.451 72.46) rotate(-23.36)" opacity="0.1"/>
      <path id="Path_13240" data-name="Path 13240" d="M251.53,484.778l19.111-4.018,11.642,2.226-15.66,5.049Z" transform="translate(-224.218 -428.723)" fill="#fff" opacity="0.45"/>
      <path id="Path_13241" data-name="Path 13241" d="M645.718,563.51s.987.4.408,1.013-22.8,7.046-22.8,7.046Z" transform="translate(-565.265 -507.217)" fill="#3a3768"/>
      <path id="Path_13242" data-name="Path 13242" d="M639.911,464.15s-2.462,5.393-.507,9.935L619.75,480.22l-1.882.4-.869-3.8.581-4.8V469.4Z" transform="translate(-559.622 -418.63)" fill="#d5d6db"/>
      <path id="Path_13243" data-name="Path 13243" d="M167.89,362.139l27.2-4.959,36.046,5.742-22.389,8.06Z" transform="translate(-149.659 -318.53)" fill="#873694"/>
      <path id="Path_13244" data-name="Path 13244" d="M248.038,446.26s-2.548,4.82.383,9.272l40.339,8.741s-2.5-3.843.132-9.169Z" transform="translate(-229.808 -402.679)" fill="#873694"/>
      <path id="Path_13245" data-name="Path 13245" d="M248.038,446.26s-2.548,4.82.383,9.272l40.339,8.741s-2.5-3.843.132-9.169Z" transform="translate(-228.6 -402.282)" opacity="0.1"/>
      <path id="Path_13329" data-name="Path 13329" d="M247.766,445.793s-2.268,5.018.663,9.47l40.675,9.454a10.492,10.492,0,0,1-.344-9.9Z" transform="translate(-241.529 -380.096)" opacity="0.1"/>
      <path id="Path_13246" data-name="Path 13246" d="M262.235,461.65s-1.454,3.527,0,5.809" transform="translate(-242.803 -416.378)" opacity="0.1"/>
      <path id="Path_13247" data-name="Path 13247" d="M300.379,540.391l22.52-7.221s1.26.271.445,1.194-22.531,6.949-22.531,6.949L260.04,531.65Z" transform="translate(-241.435 -478.841)" fill="#873694"/>
      <path id="Path_13248" data-name="Path 13248" d="M300.379,540.391l22.52-7.221s1.26.271.445,1.194-22.531,6.949-22.531,6.949L260.04,531.65Z" transform="translate(-241.422 -474.492)" fill="#34315d" opacity="0.1"/>
      <path id="Path_13249" data-name="Path 13249" d="M606.616,536.65s-2.172,2.606,0,6.515" transform="translate(-549.506 -483.261)" opacity="0.1"/>
      <rect id="Rectangle_12991" data-name="Rectangle 12991" width="10.269" height="0.109" transform="translate(57.885 56.602) rotate(-18.45)" opacity="0.1"/>
      <rect id="Rectangle_12992" data-name="Rectangle 12992" width="12.512" height="0.109" transform="translate(57.882 57.475) rotate(-20.82)" opacity="0.1"/>
      <rect id="Rectangle_12993" data-name="Rectangle 12993" width="14.502" height="0.109" transform="translate(57.945 58.502) rotate(-22.26)" opacity="0.1"/>
      <rect id="Rectangle_12994" data-name="Rectangle 12994" width="16.694" height="0.109" transform="translate(58.104 59.409) rotate(-24.31)" opacity="0.1"/>
      <rect id="Rectangle_12995" data-name="Rectangle 12995" width="18.258" height="0.109" transform="matrix(0.916, -0.401, 0.401, 0.916, 58.224, 59.85)" opacity="0.1"/>
      <rect id="Rectangle_12996" data-name="Rectangle 12996" width="21.849" height="0.109" transform="translate(58.477 60.592) rotate(-23.36)" opacity="0.1"/>
      <path id="Path_13250" data-name="Path 13250" d="M260.96,374.748l19.111-4.018,11.642,2.226-15.66,5.049Z" transform="translate(-232.624 -330.603)" fill="#fff" opacity="0.3"/>
      <path id="Path_13251" data-name="Path 13251" d="M655.148,453.48s.988.4.408,1.014-22.8,7.046-22.8,7.046Z" transform="translate(-573.671 -409.097)" fill="#873694"/>
      <path id="Path_13252" data-name="Path 13252" d="M368.762,149.876s-4.126-.249-3.644,2.646a.706.706,0,0,0,.367.744s.008-.217.423-.142a1.85,1.85,0,0,0,.45.022.936.936,0,0,0,.548-.226h0a3.279,3.279,0,0,0,1.612-2.378s.334-.414.326-.52l-.7.3a1.253,1.253,0,0,1,.051.921s-.023-.9-.157-.882c-.027,0-.362.175-.362.175a2.061,2.061,0,0,1,.1,1.513s.117-1.079-.228-1.45l-.491.287a2.166,2.166,0,0,1,.154,1.643,3.079,3.079,0,0,0-.257-1.573l-.445.347a2.116,2.116,0,0,1,.176,1.5s-.036-1.318-.271-1.418a2.683,2.683,0,0,0-.448.484s.308.652.116.989c0,0-.116-.878-.217-.883a2.923,2.923,0,0,0-.428.977,2.113,2.113,0,0,1,.333-1.036,1.163,1.163,0,0,0-.593.307s.06-.412.69-.447a2.668,2.668,0,0,1,.406-.468,2.542,2.542,0,0,0-1.006.115,1.139,1.139,0,0,1,1.12-.217l.434-.358a3.746,3.746,0,0,0-1.173.012,1.429,1.429,0,0,1,1.291-.093l.479-.286a4.352,4.352,0,0,0-1.121-.1,1.72,1.72,0,0,1,1.261.02l.341-.153s-.514-.1-.665-.117-.159-.058-.159-.058a1.793,1.793,0,0,1,.966.109A4.31,4.31,0,0,0,368.762,149.876Z" transform="translate(-335.056 -138.313)" fill="#83c124"/>
      <path id="Path_13254" data-name="Path 13254" d="M425.58,294.922s-1.8-3.728-4.087-1.891a.705.705,0,0,0-.47.683s.19-.1.326.3a1.923,1.923,0,0,0,.2.4.937.937,0,0,0,.466.369h0a3.276,3.276,0,0,0,2.862.248,1.857,1.857,0,0,0,.61.027l-.6-.464a1.26,1.26,0,0,1-.78.493s.777-.459.694-.566c-.017-.022-.326-.231-.326-.231a2.062,2.062,0,0,1-1.272.825s1-.423,1.153-.907l-.489-.289a2.167,2.167,0,0,1-1.359.936s1.029-.479,1.248-.991l-.519-.217s-.559.827-1.228.887c0,0,1.134-.674,1.105-.929a2.753,2.753,0,0,0-.642-.155s-.415.585-.806.585c0,0,.709-.531.666-.617a2.864,2.864,0,0,0-1.064.109,2.114,2.114,0,0,1,1.067-.217,1.169,1.169,0,0,0-.558-.368s.389-.148.726.383a2.682,2.682,0,0,1,.607.126,2.551,2.551,0,0,0-.591-.82s.5.1.731.869l.527.209a3.622,3.622,0,0,0-.582-1.017s.5.184.711,1.086l.482.278a4.3,4.3,0,0,0-.462-1.025,1.72,1.72,0,0,1,.6,1.11l.3.224s-.163-.5-.217-.637-.027-.167-.027-.167a1.782,1.782,0,0,1,.378.9A4.057,4.057,0,0,0,425.58,294.922Z" transform="translate(-384.924 -265.556)" fill="#6c63ff" opacity="0.1"/>
      <ellipse id="Ellipse_1293" data-name="Ellipse 1293" cx="2.496" cy="0.279" rx="2.496" ry="0.279" transform="translate(10.659 84.343)" fill="#6c63ff" opacity="0.1"/>
      <ellipse id="Ellipse_1294" data-name="Ellipse 1294" cx="2.496" cy="0.279" rx="2.496" ry="0.279" transform="translate(3.067 79.6)" fill="#6c63ff" opacity="0.1"/>
      <path id="Path_13258" data-name="Path 13258" d="M501.2,84.394c-.71-1.93-4.619-2.111-6.315-1.619a50.7,50.7,0,0,1-5.1.945l-.088-.084c.176-.052.18-.18.159-.37a5.792,5.792,0,0,1,.011-.751,1.85,1.85,0,0,0,1.572-.353h0c.977-.434.714-2.293.9-2.8a32.227,32.227,0,0,0,.358-3.735h.014l.008-.375c.01-.162.014-.256.014-.256a25.67,25.67,0,0,1,.282-3.283,28.732,28.732,0,0,0,.337-3.475v-.053l-.014-.237c.01-.173.014-.365.013-.567,0-.928-.1-2.1-.109-2.287v-.1a3.34,3.34,0,0,0-1.731-3.132c-.622-.278-1.37-.609-2.095-.932a35.479,35.479,0,0,1-.577-4.841c0-.244.022-.489.046-.732,0,.071-.008.142-.009.217v.473c.064-2.032.832-4.074.76-6.062-.006.194-.021.39-.039.585a6.313,6.313,0,0,0-.208-2,1.182,1.182,0,0,0-.341-.619,1.4,1.4,0,0,0-.6-.236,11.966,11.966,0,0,0-1.562-.291,2.414,2.414,0,0,0-.352-.683,7.725,7.725,0,0,0-4.66-3.258,3.1,3.1,0,0,0-2.738.665,2.058,2.058,0,0,0-.193.2c-.354.422-.506.977-.869,1.4-.024.028-.051.054-.077.081-.71.635-1.817.768-2.606,1.338a3.123,3.123,0,0,0-.39.34,6.609,6.609,0,0,0-.851,1.035,4.292,4.292,0,0,0-.833,1.616c-.227,1.194.586,2.327.737,3.529.337,2.69-2.64,5.076-2.076,7.73a3.539,3.539,0,0,0,.958,1.719c-1.161,1.051-2.149,2.071-2.149,2.071v.061H470.6l.019.217H470.6l.1,1.178-.1,1.716v.162h.007a27.426,27.426,0,0,0,.326,3.366,25.644,25.644,0,0,1,.281,3.282s.206,3.858.4,4.368-.079,2.364.9,2.8h0a2.063,2.063,0,0,0,.985.408c-.05.406-.018.7.143.793a.473.473,0,0,0,.228.065,2.415,2.415,0,0,0-.177.309,4.6,4.6,0,0,1-1.138-.268c-1.053-.434-4.549-1.412-5.564-.724s-3.458,1.311-2.33,4.077,1.654,2.836,1.654,2.836a4.017,4.017,0,0,1,.9.907c.339.509,3.5,1.674,4.285,1.674a7.729,7.729,0,0,1,1,.05s-.857.751-.743,1.188A36.052,36.052,0,0,1,471.5,97.6s.869.875,1.24-.273l.013.017c.069.094.445.521,1.152-.017a6.459,6.459,0,0,1,.919-.582l3.423-.484a9.682,9.682,0,0,1,1.072-.008,2.24,2.24,0,0,0,1.412-.526c.709.269,1.506.564,1.885.671.769.217,4.3,1.165,5.128.869a1.148,1.148,0,0,0,.445-.317l.788.025-.369.074s.719.012,1.7.025l-.041.024,1.226-.011c1.794.016,3.809.022,4.074-.038a28.613,28.613,0,0,1,3.205,0h.177a1.945,1.945,0,0,0,1.391-2.875c-.751-1.846-3.061-2.382-4.086-2.53.289-.058.537-.1.7-.128a5.565,5.565,0,0,0,2.218-.983c.113-.223,1.278-.869,1.579-1.237A6.917,6.917,0,0,0,501.2,84.394Zm-19.616,5.4-.116.038-.078.026-.15.148c-.119-.08-.248-.165-.381-.252C481.091,89.768,481.333,89.782,481.581,89.794Zm10.349,3.06Z" transform="translate(-423.563 -43.428)" fill="url(#linear-gradient)"/>
      <path id="Path_13261" data-name="Path 13261" d="M530.452,256.812s-1.661,4.343-2.606,3.909-.688-2.28-.869-2.786-.38-4.343-.38-4.343a26.24,26.24,0,0,0-.271-3.264,29.916,29.916,0,0,1-.326-3.452v-.053l.18-3.149,1.014-.253,2.352.869.326,1.86.127.726.054.309Z" transform="translate(-478.503 -221.783)" fill="#be6f72"/>
      <rect id="Rectangle_12997" data-name="Rectangle 12997" width="3.708" height="5.78" transform="translate(59.059 11.864)" fill="#3e373a"/>
      <rect id="Rectangle_12998" data-name="Rectangle 12998" width="3.708" height="5.78" transform="translate(59.059 11.864)" opacity="0.1"/>
      <path id="Path_13262" data-name="Path 13262" d="M553.6,403.753s-1.267,1.393-.8,1.646a51.826,51.826,0,0,1,3.512,4.995s9.99,1.23,11.874-.616,1.846-5.144,1.846-5.144-1.514.326-1.679.149-1.072-1.03-1.072-1.03S554.467,402.976,553.6,403.753Z" transform="translate(-502.301 -364.443)" fill="#4b4b5b"/>
      <path id="Path_13263" data-name="Path 13263" d="M553.6,403.753s-1.267,1.393-.8,1.646a51.826,51.826,0,0,1,3.512,4.995s9.99,1.23,11.874-.616,1.846-5.144,1.846-5.144-1.514.326-1.679.149-1.072-1.03-1.072-1.03S554.467,402.976,553.6,403.753Z" transform="translate(-502.301 -364.443)" opacity="0.02"/>
      <path id="Path_13264" data-name="Path 13264" d="M549.264,162.376l-3.257,2.606-.985.072-.362.026-6.073.445-6.3-.46-.937-.068-1.195-.087-2.5-2.389a42.75,42.75,0,0,1,3.316-3.172,6.8,6.8,0,0,1,1.607-1.074l.072-.025a1.788,1.788,0,0,0,.688-.48A16.134,16.134,0,0,0,535.7,153.4s5.393-2.786,4.742.869,2.425,2.752,2.425,2.752l1.014.463.4.184,1.022.468,2.305,1.058C549.414,160.023,549.264,162.376,549.264,162.376Z" transform="translate(-479.983 -140.551)" fill="#be6f72"/>
      <ellipse id="Ellipse_1299" data-name="Ellipse 1299" cx="4.85" cy="4.85" rx="4.85" ry="4.85" transform="translate(53.501 6.122)" opacity="0.1"/>
      <path id="Path_13265" data-name="Path 13265" d="M547.792,213.948H526v-.053l.18-3.149a42.779,42.779,0,0,1,3.316-3.172l13.682-.543.636-.671,2.305,1.058c1.81.832,1.665,3.185,1.665,3.185A15.209,15.209,0,0,1,547.792,213.948Z" transform="translate(-478.503 -188.724)" opacity="0.1"/>
      <path id="Path_13266" data-name="Path 13266" d="M547.792,212.948H526v-.053l.18-3.149a42.781,42.781,0,0,1,3.316-3.172l13.682-.543.636-.671,2.305,1.058c1.81.832,1.665,3.185,1.665,3.185A15.209,15.209,0,0,1,547.792,212.948Z" transform="translate(-478.503 -187.832)" fill="#e7c7ca"/>
      <path id="Path_13267" data-name="Path 13267" d="M582.647,186.132s3.438,4.38,8.017-.09.507,9.971.507,9.971l-9.881,1.173Z" transform="translate(-527.789 -169.842)" opacity="0.1"/>
      <path id="Path_13268" data-name="Path 13268" d="M582.647,188.132s3.438,4.38,8.017-.09.507,9.971.507,9.971l-9.881,1.173Z" transform="translate(-527.789 -171.626)" fill="#e7c7ca"/>
      <path id="Path_13269" data-name="Path 13269" d="M565.557,201.529l.364,5.548.39,1.846.3,1.412s.76,10.858.543,11.4.109.977.154,1.266-.046,1.014-.01,1.34,0,.47-.832.354-1.991-.318-1.991-.318a15.474,15.474,0,0,1-3.945-.144,11.576,11.576,0,0,0-2.932-.363s-2.9.073-3.836-.036-1.448,1.159-2.063.8.723-3.872,1.158-4.886-.579-3.583-.579-3.583l1.3-7.228.29-1.639v-5.151l.072-.025a1.787,1.787,0,0,0,.688-.48l.326,5.184,10.207.363V201.35" transform="translate(-501.268 -184.27)" opacity="0.1"/>
      <path id="Path_13270" data-name="Path 13270" d="M565.557,199.529l.364,5.548.39,1.846.3,1.412s.76,10.858.543,11.4.109.977.154,1.266-.046,1.014-.01,1.34,0,.47-.832.354-1.991-.318-1.991-.318a15.474,15.474,0,0,1-3.945-.144,11.576,11.576,0,0,0-2.932-.363s-2.9.073-3.836-.036-1.448,1.159-2.063.8.723-3.872,1.158-4.886-.579-3.583-.579-3.583l1.3-7.228.29-1.639v-5.151l.072-.025a1.787,1.787,0,0,0,.688-.48l.326,5.184,10.207.363V199.35" transform="translate(-501.268 -182.487)" fill="#e7c7ca"/>
      <path id="Path_13271" data-name="Path 13271" d="M554.262,52.376a1.2,1.2,0,0,0-.326-.615,1.334,1.334,0,0,0-.573-.235,11.33,11.33,0,0,0-1.507-.289,2.411,2.411,0,0,0-.326-.676,7.464,7.464,0,0,0-4.491-3.24,2.849,2.849,0,0,0-2.715.747c-.341.42-.488.977-.832,1.39-.663.8-1.861.9-2.7,1.52a5,5,0,0,0-1.086,1.256,4.311,4.311,0,0,0-.8,1.606c-.217,1.185.566,2.314.71,3.509.326,2.674-2.541,5.047-2,7.686a4.76,4.76,0,0,0,3.208,3.172,2.225,2.225,0,0,1,1.352.885c.109.217.127.468.229.687a1.371,1.371,0,0,0,2.077.227,3.236,3.236,0,0,0,.869-2.2c.291-3.514-1.116-6.985-.952-10.508a3.1,3.1,0,0,1,1.3-2.756c1.285-.652,2.83.434,4.243.227a8.418,8.418,0,0,1,.406,5.137,14.032,14.032,0,0,0-.642,2.812,8.653,8.653,0,0,0,1.438,4.116,2.191,2.191,0,0,1,.29.794,1.914,1.914,0,0,1-.155.831,11.7,11.7,0,0,0-1.133,3.123.5.5,0,0,0,.081.371.467.467,0,0,0,.28.126c1.173.2,2.187-.838,2.759-1.882a8.822,8.822,0,0,0,1.088-3.748c.118-2.211-.674-4.386-.625-6.6C553.791,57.336,554.928,54.8,554.262,52.376Z" transform="translate(-488.799 -46.843)" opacity="0.1"/>
      <path id="Path_13272" data-name="Path 13272" d="M555.262,51.376a1.2,1.2,0,0,0-.326-.615,1.333,1.333,0,0,0-.573-.235,11.328,11.328,0,0,0-1.507-.289,2.414,2.414,0,0,0-.326-.676,7.464,7.464,0,0,0-4.491-3.24,2.849,2.849,0,0,0-2.715.747c-.341.42-.487.977-.832,1.39-.663.8-1.861.9-2.7,1.52a5,5,0,0,0-1.086,1.256,4.309,4.309,0,0,0-.8,1.606c-.217,1.185.566,2.314.71,3.509.326,2.674-2.541,5.047-2,7.686a4.76,4.76,0,0,0,3.208,3.172,2.225,2.225,0,0,1,1.352.885c.109.217.127.468.229.687a1.371,1.371,0,0,0,2.077.227,3.237,3.237,0,0,0,.869-2.2c.291-3.514-1.116-6.985-.952-10.508a3.1,3.1,0,0,1,1.3-2.756c1.285-.652,2.83.434,4.244.227a8.419,8.419,0,0,1,.406,5.137,14.032,14.032,0,0,0-.642,2.812,8.655,8.655,0,0,0,1.438,4.116,2.191,2.191,0,0,1,.29.794,1.914,1.914,0,0,1-.155.831,11.7,11.7,0,0,0-1.133,3.123.5.5,0,0,0,.081.371.467.467,0,0,0,.28.126c1.173.2,2.187-.838,2.759-1.882a8.82,8.82,0,0,0,1.088-3.748c.118-2.211-.674-4.386-.625-6.6C554.791,56.336,555.928,53.8,555.262,51.376Z" transform="translate(-489.691 -45.952)" fill="#3e373a"/>
      <path id="Path_13273" data-name="Path 13273" d="M581.79,467.637l4.307.138-.618-3.195-3.3.314Z" transform="translate(-518.617 -414.286)" fill="#c3c7d9"/>
      <path id="Path_13274" data-name="Path 13274" d="M628.975,411.165c-.29.362-1.412,1.013-1.52,1.23a5.346,5.346,0,0,1-2.136.977,17.777,17.777,0,0,0-3.257.833,31.763,31.763,0,0,1-4.084,1.08,11.594,11.594,0,0,1-1.237.223c-.651.036-7.781-2.389-7.781-2.389l1.375-1.412.076-.026c.389-.131,2.185-.738,3.182-1.027a7.319,7.319,0,0,0,2.426-1.665s1.918-.651,2.172-.724-.651-2.533-.651-2.533,4.162-.578,5.791-1.067,5.393-.308,6.081,1.61A7.07,7.07,0,0,1,628.975,411.165Z" transform="translate(-552.455 -365.365)" fill="#4b4b5b"/>
      <path id="Path_13275" data-name="Path 13275" d="M543.153,491.256a2.541,2.541,0,0,1-1.665.8c-.833-.072-3.745.217-3.745.217a5.839,5.839,0,0,0-1.467.85c-.681.536-1.042.109-1.11.017l-.012-.017c-.363,1.141-1.194.271-1.194.271a36.728,36.728,0,0,0,.251-3.909c-.111-.434.716-1.18.716-1.18l.977-.249,2.476-.634,3.547,1.23Z" transform="translate(-485.599 -439.36)" fill="#e7c7ca"/>
      <path id="Path_13276" data-name="Path 13276" d="M535.9,493.26l-.733,5.084-.012-.017c-.363,1.141-1.194.271-1.194.271a36.729,36.729,0,0,0,.251-3.909c-.111-.434.716-1.18.716-1.18Z" transform="translate(-485.599 -444.566)" opacity="0.1"/>
      <path id="Path_13277" data-name="Path 13277" d="M599,360.08a5.926,5.926,0,0,0,3.583,0" transform="translate(-543.576 -325.796)" opacity="0.1"/>
      <path id="Path_13278" data-name="Path 13278" d="M659.29,371.42a1.584,1.584,0,0,0,1.412,0" transform="translate(-597.32 -335.908)" opacity="0.1"/>
      <path id="Path_13279" data-name="Path 13279" d="M659.29,378.6s1.339.179,1.593-.182" transform="translate(-597.32 -342.151)" opacity="0.1"/>
      <path id="Path_13280" data-name="Path 13280" d="M655.29,392.51a12.348,12.348,0,0,0,3.139-.76" transform="translate(-593.754 -354.038)" opacity="0.1"/>
      <path id="Path_13281" data-name="Path 13281" d="M584.62,391.75a5.97,5.97,0,0,0,2.462.76" transform="translate(-530.758 -354.038)" opacity="0.1"/>
      <path id="Path_13282" data-name="Path 13282" d="M617.968,474.784a11.574,11.574,0,0,1-1.237.223c-.651.036-7.781-2.389-7.781-2.389l1.375-1.411.076-.026c.217.153.4.284.522.384.6.471,1.176-.144,1.393-.144a17.576,17.576,0,0,1,2.1,1.556,6.519,6.519,0,0,1,2.027.76c.29.362,1.3.29,1.483.543A.968.968,0,0,1,617.968,474.784Z" transform="translate(-552.446 -424.873)" opacity="0.1"/>
      <path id="Path_13283" data-name="Path 13283" d="M481.361,407.2a7.87,7.87,0,0,1-2.77-.326c-1.013-.427-4.379-1.412-5.357-.72s-3.33,1.3-2.244,4.055,1.593,2.823,1.593,2.823a3.919,3.919,0,0,1,.869.9c.326.507,3.366,1.665,4.126,1.665a6.309,6.309,0,0,1,3.981,1.3,8.181,8.181,0,0,0,3.583,1.448s2.389.977,3.133,1.194,4.142,1.158,4.94.869,1.3-2.1,1.3-2.1.362-1.629.18-1.882-1.194-.181-1.483-.543a6.51,6.51,0,0,0-2.027-.76,17.51,17.51,0,0,0-2.095-1.557c-.217,0-.795.615-1.393.144a31.767,31.767,0,0,0-3.747-2.389C482.577,410.6,481.361,407.2,481.361,407.2Z" transform="translate(-429.216 -366.692)" fill="#4b4b5b"/>
      <path id="Path_13284" data-name="Path 13284" d="M536.27,427.075a2.074,2.074,0,0,1,1.78.47,31.479,31.479,0,0,0,3.792,2.178" transform="translate(-487.658 -385.504)" opacity="0.1"/>
      <g id="Group_15884" data-name="Group 15884" transform="translate(48.89 6.828)" opacity="0.1">
        <path id="Path_13288" data-name="Path 13288" d="M607.987,110.59a8.424,8.424,0,0,0-.623-3.49c-1.412.211-2.958-.878-4.243-.227a3.115,3.115,0,0,0-1.3,2.756c-.013.281-.015.562-.01.844,0-.1,0-.2.01-.3a3.1,3.1,0,0,1,1.3-2.756c1.286-.652,2.83.434,4.243.227A8.4,8.4,0,0,1,607.987,110.59Z" transform="translate(-594.966 -106.624)"/>
        <path id="Path_13289" data-name="Path 13289" d="M551.762,112.181a3.614,3.614,0,0,0-.014-.71c-.115-.956-.637-1.869-.732-2.8-.122,1.124.594,2.2.732,3.343A.674.674,0,0,1,551.762,112.181Z" transform="translate(-549.68 -108.414)"/>
        <path id="Path_13290" data-name="Path 13290" d="M546.626,204.523a3.194,3.194,0,0,1-.869,2.2,1.37,1.37,0,0,1-2.077-.227c-.109-.217-.125-.47-.23-.687-.241-.5-.834-.691-1.352-.885a4.749,4.749,0,0,1-3.206-3.172,3.331,3.331,0,0,1-.058-.423,3.424,3.424,0,0,0,.058.966,4.762,4.762,0,0,0,3.206,3.172c.518.194,1.111.388,1.352.885.109.217.127.468.23.687a1.371,1.371,0,0,0,2.077.227,3.237,3.237,0,0,0,.869-2.2,12.373,12.373,0,0,0,.034-1.275C546.66,204.038,546.646,204.281,546.626,204.523Z" transform="translate(-538.823 -191.012)"/>
        <path id="Path_13291" data-name="Path 13291" d="M687.93,111.867v.47c.061-2.02.8-4.05.729-6.028C688.6,108.139,687.971,110.008,687.93,111.867Z" transform="translate(-671.739 -106.31)"/>
        <path id="Path_13292" data-name="Path 13292" d="M652.487,192.269a1.4,1.4,0,0,0,.025-.392,2.171,2.171,0,0,0-.29-.794,9.756,9.756,0,0,1-1.428-3.743c0,.056-.008.109-.009.169a8.645,8.645,0,0,0,1.437,4.116A2.608,2.608,0,0,1,652.487,192.269Z" transform="translate(-638.627 -178.541)"/>
        <path id="Path_13293" data-name="Path 13293" d="M659,216.477a8.836,8.836,0,0,1-1.1,3.748c-.573,1.044-1.586,2.083-2.76,1.882a.461.461,0,0,1-.28-.127.274.274,0,0,1-.051-.085c-.013.085-.024.17-.03.257a.5.5,0,0,0,.081.37.461.461,0,0,0,.28.127c1.174.2,2.187-.838,2.76-1.882a8.836,8.836,0,0,0,1.1-3.748c.013-.254.014-.507.006-.76C659,216.333,659,216.4,659,216.477Z" transform="translate(-642.182 -204.321)"/>
      </g>
      <path id="Path_13296" data-name="Path 13296" d="M561.93,525.662s.942-2.126,3.459-.505" transform="translate(-510.532 -472.458)" fill="none" stroke="#000" stroke-width="1" opacity="0.1"/>
      <path id="Path_13297" data-name="Path 13297" d="M533.79,227.81l1.922-1.737s7.452-.489,7.76,2.045c0,0,2.642-3,8.2-2.335l2.351,1.872-6.5,2.851-6.314,2.19-4.651-2.082Z" transform="translate(-485.448 -205.957)" opacity="0.1"/>
      <path id="Path_13298" data-name="Path 13298" d="M533.79,228.81l1.922-1.737s7.452-.489,7.76,2.045c0,0,2.642-3,8.2-2.335l2.351,1.872-6.5,2.851-6.314,2.19-4.651-2.082Z" transform="translate(-485.448 -206.849)" fill="#d5d6db"/>
      <path id="Path_13299" data-name="Path 13299" d="M437.38,204.83,438.23,215l9.012.453-.391-10.128-.008-.17Z" transform="translate(-389.888 -182.663)" opacity="0.1"/>
      <path id="Path_13300" data-name="Path 13300" d="M437.38,202.83,438.23,213l9.012.453-.391-10.128-.008-.17Z" transform="translate(-389.888 -180.879)" fill="#1cadd5"/>
      <path id="Path_13301" data-name="Path 13301" d="M559.007,202.83l-9.3,1.394v10.217l9.085-1.313Z" transform="translate(-490.02 -180.88)" opacity="0.1"/>
      <path id="Path_13302" data-name="Path 13302" d="M559.007,200.83l-9.3,1.394v10.217l9.085-1.313Z" transform="translate(-490.02 -179.097)" fill="#1cadd5"/>
      <path id="Path_13303" data-name="Path 13303" d="M573.912,223.79l-5.022.558.11,1.711,4.909-.536Z" transform="translate(-507.118 -199.563)" fill="#fff" opacity="0.3"/>
      <path id="Path_13304" data-name="Path 13304" d="M536.5,315.717l.511,1.376a1.709,1.709,0,0,0,1.592.326,8.128,8.128,0,0,0,1.919-.8,7.273,7.273,0,0,0,.869-1.91,6.766,6.766,0,0,1,1.013-2.172c.506-.434,1.846-6.418,0-5.833s-3.257,6.014-3.257,6.014a1.288,1.288,0,0,1-.8.434c-.47.037-1.412-.073-1.593.326S535.956,314.922,536.5,315.717Z" transform="translate(-487.667 -278.171)" fill="#be6f72"/>
      <path id="Path_13305" data-name="Path 13305" d="M615.907,253.5a3.127,3.127,0,0,1-2.727-.68l.392,10.127a2.764,2.764,0,0,0,2.335.771Z" transform="translate(-556.217 -230.159)" opacity="0.1"/>
      <path id="Path_13306" data-name="Path 13306" d="M615.907,251.5a3.127,3.127,0,0,1-2.727-.68l.392,10.127a2.764,2.764,0,0,0,2.335.771Z" transform="translate(-556.217 -228.375)" fill="#1cadd5"/>
      <path id="Path_13307" data-name="Path 13307" d="M615.907,251.5a3.127,3.127,0,0,1-2.727-.68l.392,10.127a2.764,2.764,0,0,0,2.335.771Z" transform="translate(-556.382 -228.409)" opacity="0.1"/>
      <path id="Path_13308" data-name="Path 13308" d="M640.29,238.285s3.782-1.156,4.768-.994" transform="translate(-580.383 -216.288)" opacity="0.1"/>
      <path id="Path_13309" data-name="Path 13309" d="M566.208,236.451s-3.666-.869-4.278-.622" transform="translate(-510.532 -214.958)" opacity="0.1"/>
      <path id="Path_13310" data-name="Path 13310" d="M662.25,242.931s2.529-.927,3.443-.486" transform="translate(-599.959 -220.791)" opacity="0.1"/>
      <path id="Path_13311" data-name="Path 13311" d="M650.52,446.512a8.319,8.319,0,0,1,1.247-.774,20.338,20.338,0,0,0,1.846-1.128" transform="translate(-589.503 -401.176)" opacity="0.1"/>
      <path id="Path_13312" data-name="Path 13312" d="M538.664,360.08a11.707,11.707,0,0,1-2.063,1.412c-.477.114-.771,1.126-.771,1.126" transform="translate(-487.266 -325.799)" opacity="0.1"/>
      <path id="Path_13313" data-name="Path 13313" d="M659.13,313.964l-.506,1.379a1.71,1.71,0,0,1-1.593.326,8.131,8.131,0,0,1-1.919-.8,7.237,7.237,0,0,1-.869-1.91,6.74,6.74,0,0,0-1.013-2.172c-.507-.434-1.846-6.418,0-5.833s3.258,6.014,3.258,6.014a1.288,1.288,0,0,0,.8.434c.47.037,1.411-.073,1.593.326S659.673,313.172,659.13,313.964Z" transform="translate(-591.077 -276.61)" fill="#be6f72"/>
      <ellipse id="Ellipse_1302" data-name="Ellipse 1302" cx="4.85" cy="4.85" rx="4.85" ry="4.85" transform="translate(53.517 5.884)" fill="#be6f72"/>
      <path id="Path_13315" data-name="Path 13315" d="M578.353,88.319a9.941,9.941,0,0,0,1.667-.631,6.311,6.311,0,0,1,3.924.26,5.089,5.089,0,0,0,1.5.326,1.516,1.516,0,0,0,1.318-.651,1.473,1.473,0,0,0-.009-1.361,3.831,3.831,0,0,0-.886-1.093c-1.129-1.066-2.53-2.063-4.08-1.955a5.614,5.614,0,0,0-1.793.514,19.762,19.762,0,0,0-2.1,1.06c-.522.3-1.49.708-1.791,1.262C575.413,87.3,577.289,88.486,578.353,88.319Z" transform="translate(-523.03 -78.886)" fill="#3e373a"/>
      <path id="Path_13316" data-name="Path 13316" d="M586.756,112.62a1.515,1.515,0,0,1-1.318.652,5.094,5.094,0,0,1-1.5-.319,6.3,6.3,0,0,0-3.924-.26,9.452,9.452,0,0,1-1.667.63,2.34,2.34,0,0,1-2.389-1.563c-.168,1.1,1.433,2.038,2.389,1.888a10,10,0,0,0,1.667-.63,6.3,6.3,0,0,1,3.924.26,4.887,4.887,0,0,0,1.5.319,1.527,1.527,0,0,0,1.318-.652,1.272,1.272,0,0,0,.152-.794,1.169,1.169,0,0,1-.152.468Z" transform="translate(-523.027 -104.34)" opacity="0.1"/>
    </g>
    <path id="Path_13317" data-name="Path 13317" d="M1023.453,661.63s.644.842-.3,2.113-1.717,2.344-1.4,3.137c0,0,1.42-2.361,2.576-2.394S1024.722,663.049,1023.453,661.63Z" transform="translate(-920.422 -594.702)" fill="#83c124"/>
    <path id="Path_13318" data-name="Path 13318" d="M1023.755,661.63a1.041,1.041,0,0,1,.131.264c1.127,1.325,1.729,2.561.644,2.592-1.01.029-2.22,1.835-2.51,2.29a1.02,1.02,0,0,0,.034.109s1.42-2.361,2.576-2.394S1025.025,663.049,1023.755,661.63Z" transform="translate(-920.723 -594.702)" opacity="0.1"/>
    <path id="Path_13319" data-name="Path 13319" d="M1047.779,669.955c0,.3-.034.536-.074.536s-.075-.24-.075-.536.041-.156.083-.156S1047.779,669.659,1047.779,669.955Z" transform="translate(-943.553 -601.946)" fill="#ffd037"/>
    <path id="Path_13320" data-name="Path 13320" d="M1048.625,673.055c-.26.141-.486.227-.506.191s.175-.18.434-.326.157-.039.177,0S1048.885,672.913,1048.625,673.055Z" transform="translate(-943.987 -604.692)" fill="#ffd037"/>
    <path id="Path_13321" data-name="Path 13321" d="M994.8,661.63s-.644.842.3,2.113,1.717,2.344,1.4,3.137c0,0-1.419-2.361-2.576-2.394S993.538,663.049,994.8,661.63Z" transform="translate(-895.175 -594.702)" fill="#83c124"/>
    <path id="Path_13322" data-name="Path 13322" d="M994.8,661.63a1.041,1.041,0,0,0-.131.264c-1.127,1.325-1.729,2.561-.644,2.592,1.009.029,2.221,1.835,2.51,2.29a.852.852,0,0,1-.035.109s-1.419-2.361-2.576-2.394S993.538,663.049,994.8,661.63Z" transform="translate(-895.175 -594.702)" opacity="0.1"/>
    <path id="Path_13323" data-name="Path 13323" d="M995.64,669.955c0,.3.033.536.074.536s.075-.24.075-.536-.042-.156-.083-.156S995.64,669.659,995.64,669.955Z" transform="translate(-897.208 -601.946)" fill="#ffd037"/>
    <path id="Path_13324" data-name="Path 13324" d="M990.563,673.055c.259.141.486.227.506.191s-.175-.18-.434-.326-.157-.039-.177,0S990.3,672.913,990.563,673.055Z" transform="translate(-892.542 -604.692)" fill="#ffd037"/>
    <ellipse id="Ellipse_1303" data-name="Ellipse 1303" cx="6.732" cy="1.033" rx="6.732" ry="1.033" transform="translate(94.598 76.507)" fill="#6c63ff" opacity="0.1"/>
    <path id="Path_13325" data-name="Path 13325" d="M997.33,696.3l-.033.263-.045.371-.018.155-.046.371-.02.155-.044.37-.516,4.224c-.046.377-.661.671-1.405.671h-2.677c-.744,0-1.358-.294-1.405-.671l-.516-4.224-.046-.37-.018-.155-.046-.371-.02-.155-.044-.371-.033-.263c-.025-.217.307-.393.729-.393H996.6C997.023,695.91,997.356,696.089,997.33,696.3Z" transform="translate(-892.535 -625.307)" fill="#65617d"/>
    <path id="Path_13326" data-name="Path 13326" d="M909,658.53l-.045.371h-6.776l-.045-.371Z" transform="translate(-804.233 -587.271)" fill="#9d9cb5"/>
    <path id="Path_13327" data-name="Path 13327" d="M909.458,663.38l-.044.371h-6.648l-.046-.371Z" transform="translate(-804.76 -591.594)" fill="#9d9cb5"/>
    <path id="Path_13328" data-name="Path 13328" d="M909.928,668.23l-.046.371h-6.518l-.045-.371Z" transform="translate(-805.294 -595.917)" fill="#9d9cb5"/>
  </g>
</svg>
