<svg xmlns="http://www.w3.org/2000/svg" width="97.455" height="86.796" viewBox="0 0 97.455 86.796">
  <g id="Group_15886" data-name="Group 15886" transform="translate(0)" opacity="0.8">
    <rect id="Rectangle_12999" data-name="Rectangle 12999" width="15.35" height="4.64" rx="2.32" transform="translate(0 35.756)" fill="#6c63ff" opacity="0.1"/>
    <rect id="Rectangle_13000" data-name="Rectangle 13000" width="15.35" height="4.64" rx="2.32" transform="translate(16.063 40.397)" fill="#6c63ff" opacity="0.1"/>
    <rect id="Rectangle_13001" data-name="Rectangle 13001" width="15.35" height="4.64" rx="2.32" transform="translate(32.128 45.037)" fill="#6c63ff" opacity="0.1"/>
    <rect id="Rectangle_13002" data-name="Rectangle 13002" width="15.35" height="4.64" rx="2.32" transform="translate(0 28.795)" fill="#6c63ff" opacity="0.1"/>
    <rect id="Rectangle_13003" data-name="Rectangle 13003" width="15.35" height="4.64" rx="2.32" transform="translate(16.063 33.435)" fill="#6c63ff" opacity="0.1"/>
    <rect id="Rectangle_13004" data-name="Rectangle 13004" width="15.35" height="4.64" rx="2.32" transform="translate(32.128 38.077)" fill="#6c63ff" opacity="0.1"/>
    <rect id="Rectangle_13005" data-name="Rectangle 13005" width="15.35" height="4.64" rx="2.32" transform="translate(49.977 35.756)" fill="#6c63ff" opacity="0.1"/>
    <rect id="Rectangle_13006" data-name="Rectangle 13006" width="15.35" height="4.64" rx="2.32" transform="translate(66.04 40.397)" fill="#6c63ff" opacity="0.1"/>
    <rect id="Rectangle_13007" data-name="Rectangle 13007" width="15.35" height="4.64" rx="2.32" transform="translate(82.105 45.037)" fill="#6c63ff" opacity="0.1"/>
    <rect id="Rectangle_13008" data-name="Rectangle 13008" width="15.35" height="4.64" rx="2.32" transform="translate(49.977 28.795)" fill="#6c63ff" opacity="0.1"/>
    <rect id="Rectangle_13009" data-name="Rectangle 13009" width="15.35" height="4.64" rx="2.32" transform="translate(66.04 33.435)" fill="#6c63ff" opacity="0.1"/>
    <rect id="Rectangle_13010" data-name="Rectangle 13010" width="15.35" height="4.64" rx="2.32" transform="translate(82.105 38.077)" fill="#6c63ff" opacity="0.1"/>
    <rect id="Rectangle_13011" data-name="Rectangle 13011" width="15.35" height="4.64" rx="2.32" transform="translate(0 19.513)" fill="#6c63ff" opacity="0.1"/>
    <rect id="Rectangle_13012" data-name="Rectangle 13012" width="15.35" height="4.64" rx="2.32" transform="translate(16.063 24.154)" fill="#6c63ff" opacity="0.1"/>
    <rect id="Rectangle_13013" data-name="Rectangle 13013" width="15.35" height="4.64" rx="2.32" transform="translate(32.128 28.795)" fill="#6c63ff" opacity="0.1"/>
    <rect id="Rectangle_13014" data-name="Rectangle 13014" width="15.35" height="4.64" rx="2.32" transform="translate(0 12.552)" fill="#6c63ff" opacity="0.1"/>
    <rect id="Rectangle_13015" data-name="Rectangle 13015" width="15.35" height="4.64" rx="2.32" transform="translate(16.063 17.193)" fill="#6c63ff" opacity="0.1"/>
    <rect id="Rectangle_13016" data-name="Rectangle 13016" width="15.35" height="4.64" rx="2.32" transform="translate(32.128 21.834)" fill="#6c63ff" opacity="0.1"/>
    <rect id="Rectangle_13017" data-name="Rectangle 13017" width="15.35" height="4.64" rx="2.32" transform="translate(49.977 19.513)" fill="#6c63ff" opacity="0.1"/>
    <rect id="Rectangle_13018" data-name="Rectangle 13018" width="15.35" height="4.64" rx="2.32" transform="translate(66.04 24.154)" fill="#6c63ff" opacity="0.1"/>
    <rect id="Rectangle_13019" data-name="Rectangle 13019" width="15.35" height="4.64" rx="2.32" transform="translate(82.105 28.795)" fill="#6c63ff" opacity="0.1"/>
    <rect id="Rectangle_13020" data-name="Rectangle 13020" width="15.35" height="4.64" rx="2.32" transform="translate(49.977 12.552)" fill="#6c63ff" opacity="0.1"/>
    <rect id="Rectangle_13021" data-name="Rectangle 13021" width="15.35" height="4.64" rx="2.32" transform="translate(66.04 17.193)" fill="#6c63ff" opacity="0.1"/>
    <rect id="Rectangle_13022" data-name="Rectangle 13022" width="15.35" height="4.64" rx="2.32" transform="translate(82.105 21.834)" fill="#6c63ff" opacity="0.1"/>
    <path id="Path_13354" data-name="Path 13354" d="M199.4,320.559,194,353.67l24.423-2.583-1.057-2.818-19.08,1.585,4.462-29.354Z" transform="translate(-189.421 -282.868)" fill="#3f3d56"/>
    <path id="Path_13355" data-name="Path 13355" d="M186,.117,218.876,0l9.511,71.976-32.994,4.462Z" transform="translate(-182.36 0)" fill="#3f3d56"/>
    <path id="Path_13356" data-name="Path 13356" d="M216.5,24.5h26.536l9.276,66.927-27.358,3.757Z" transform="translate(-209.279 -21.623)" fill="#fff"/>
    <path id="Path_13357" data-name="Path 13357" d="M451.987,633.053a6.537,6.537,0,0,0,.508.952c.634.848,1.838.98,2.74,1.533a.252.252,0,0,1,.107.1c.041.1-.051.2-.139.261a4.1,4.1,0,0,1-2.42.485,3.226,3.226,0,0,1-.837-.08c-.443-.117-.822-.426-1.259-.552a3.344,3.344,0,0,0-.692-.1l-.917-.062a2.159,2.159,0,0,1-.715-.133.723.723,0,0,1-.451-.534,1.536,1.536,0,0,1,.107-.574c.117-.451.081-1,.432-1.3a1.332,1.332,0,0,1,.487-.235,15.548,15.548,0,0,1,1.95-.519C451.434,632.192,451.746,632.591,451.987,633.053Z" transform="translate(-419.74 -566.26)" fill="#3f3d56"/>
    <path id="Path_13358" data-name="Path 13358" d="M368.4,636.645a.858.858,0,0,1-.15.712.8.8,0,0,1-.393.176,3.439,3.439,0,0,1-2.59-.256.716.716,0,0,1-.2-.175.639.639,0,0,1-.1-.323,2.77,2.77,0,0,1,.168-.98,17.2,17.2,0,0,0,.5-2.319,8.126,8.126,0,0,1,2.362.571,3.757,3.757,0,0,1,.235,1.24Q368.333,635.964,368.4,636.645Z" transform="translate(-346.524 -567.312)" fill="#3f3d56"/>
    <path id="Path_13359" data-name="Path 13359" d="M367.447,371.693l.587,5.459a19,19,0,0,1,.16,3.356,20.48,20.48,0,0,0-.3,3.863c.06.5.2.986.216,1.488a8.1,8.1,0,0,1-.05,1c-.265,3.312.574,6.6,1.044,9.888a4.29,4.29,0,0,1,.049,1.231c-.061.417-.183.964.188,1.161l-3.485,1.263c-.445-.558-.15-1.425-.235-2.133a11.11,11.11,0,0,0-.614-1.82,8.59,8.59,0,0,1-.26-1.706c-.3-3.12-1.238-6.158-1.456-9.285a4.226,4.226,0,0,0-.117-.9,8.324,8.324,0,0,0-.524-1.093,7.71,7.71,0,0,1-.519-1.744l-.746-3.493c-.754,1.122-.723,2.583-.872,3.929-.209,1.879-.676,3.726-1.057,5.581a11.1,11.1,0,0,0-.2,1.209c-.1,1.088.1,2.187-.007,3.275-.117,1.26-.647,2.489-.519,3.749a13.106,13.106,0,0,0,.519,2.034,3.191,3.191,0,0,1-.006,2.063,6.341,6.341,0,0,0-3.019-.333,6.336,6.336,0,0,1-1.394-4.344c-.076-1.6.108-3.208-.092-4.8-.059-.47-.15-.928-.166-1.4-.049-1.5.673-2.907,1.032-4.367a9.24,9.24,0,0,0,.09-4.01c-.176-.877-.479-1.728-.587-2.617a11.882,11.882,0,0,1,.352-3.731c.168-.83.335-1.66.525-2.486a6.549,6.549,0,0,1,.993-2.517,4.427,4.427,0,0,1,3.875-1.564,8.363,8.363,0,0,1,4,1.595A15.084,15.084,0,0,1,367.447,371.693Z" transform="translate(-337.36 -332.914)" fill="#192534"/>
    <path id="Path_13360" data-name="Path 13360" d="M397.924,206.408a1.013,1.013,0,0,0-.135.345,1.163,1.163,0,0,0,.235.672,3.659,3.659,0,0,1,.344.857,1.409,1.409,0,0,1,.05.572,1.38,1.38,0,0,1-.153.411,2.091,2.091,0,0,1-1.019,1.023,1.8,1.8,0,0,1-1.1.045,3.347,3.347,0,0,1-1.009-.479,3.066,3.066,0,0,1-.69-.6,4.136,4.136,0,0,1-.477-.822,3.272,3.272,0,0,1-.447-1.617.539.539,0,0,1,.028-.149.8.8,0,0,1,.157-.235,3.064,3.064,0,0,0,.719-2.131l1.711.389c.377.086.754.171,1.126.278a1.89,1.89,0,0,1,.973.483C398.433,205.722,398.059,206.159,397.924,206.408Z" transform="translate(-371.733 -188.531)" fill="#fbbebe"/>
    <ellipse id="Ellipse_1308" data-name="Ellipse 1308" cx="3.109" cy="3.109" rx="3.109" ry="3.109" transform="translate(22.166 11.367)" fill="#fbbebe"/>
    <path id="Path_13361" data-name="Path 13361" d="M384.623,231.232a1.8,1.8,0,0,1,.675-.65,1.2,1.2,0,0,0,.573-.726.519.519,0,0,1,.052-.2c.1-.15.337-.075.479.035a3.68,3.68,0,0,1,.809,1.023,6.507,6.507,0,0,1,1.164,4.18,8.939,8.939,0,0,1-.141,2.523,7.335,7.335,0,0,0-.365,1.557c-.039,1.941-.713,3.8-.76,5.737a14.892,14.892,0,0,0,.085,1.68l.11,1.26q-2.561-.147-5.108-.45a9.772,9.772,0,0,0-.366-1.7,36.976,36.976,0,0,1-1.187-7.014c-.09-1.259-.183-2.513-.323-3.767a14.443,14.443,0,0,1-.224-3.425,4.728,4.728,0,0,1,.481-1.482.977.977,0,0,1,.376-.45,1.015,1.015,0,0,1,.265-.086,4.924,4.924,0,0,1,.808-.1.555.555,0,0,1,.2.019.619.619,0,0,1,.269.261A4.875,4.875,0,0,0,384.623,231.232Z" transform="translate(-359.848 -210.484)" fill="#f2f2f2"/>
    <path id="Path_13362" data-name="Path 13362" d="M406.72,242.76c.218.312.681.386.883.7a1.845,1.845,0,0,1,.154.419c.123.393.372.735.524,1.119a4.8,4.8,0,0,1,.227,1.755,5.807,5.807,0,0,1-.108,1.409c-.07.29-.186.566-.27.852a4.17,4.17,0,0,0-.157,1.5.616.616,0,0,0,.085.311.675.675,0,0,0,.3.2,2.225,2.225,0,0,0,1.08.271.4.4,0,0,0,.215-.072.476.476,0,0,0,.106-.14l.235-.4a1.765,1.765,0,0,0,.352-1.184,2.347,2.347,0,0,0-.267-.607,7.136,7.136,0,0,1-.383-.948,13.155,13.155,0,0,1-.838-3.305,2.905,2.905,0,0,1,.141-1.282,3.651,3.651,0,0,1,.413-.715.306.306,0,0,0-.33-.112,1.958,1.958,0,0,0-.342.142,1.621,1.621,0,0,1-1.077-.007,1.882,1.882,0,0,0-.493-.167C407.122,242.522,406.728,242.774,406.72,242.76Z" transform="translate(-383.387 -222.26)" fill="#1cadd5"/>
    <path id="Path_13363" data-name="Path 13363" d="M421.318,230.932c-.07-.056-.18-.108-.242-.042a.273.273,0,0,0-.045.1.632.632,0,0,1-.4.309c-.163.063-.339.1-.438-.022a.265.265,0,0,1,.015-.314.958.958,0,0,1,.257-.217,2.51,2.51,0,0,0,1.024-1.611.766.766,0,0,1,.281.485c.039.187.043.379.082.566a7.937,7.937,0,0,1,.215.789,4.126,4.126,0,0,1,0,.434,2.67,2.67,0,0,0,.049.42A7.989,7.989,0,0,0,421.318,230.932Z" transform="translate(-395.236 -210.446)" fill="#f2f2f2"/>
    <path id="Path_13364" data-name="Path 13364" d="M396.307,221.653c-.117-.112-.235-.217-.352-.331a4.567,4.567,0,0,1-1.135-1.8.678.678,0,0,0-.319.47.72.72,0,0,0,.155.382,5.95,5.95,0,0,1,.861,2.3.686.686,0,0,1,.593-.316c.186,0,1.018.493,1.078.369C397.275,222.532,396.448,221.786,396.307,221.653Z" transform="translate(-372.602 -201.964)" fill="#f2f2f2"/>
    <path id="Path_13365" data-name="Path 13365" d="M346.457,222.555a9.746,9.746,0,0,0,3.943,2.387.885.885,0,0,1,.4.2.813.813,0,0,1,.166.364,20.652,20.652,0,0,1,.478,3.431,1.913,1.913,0,0,1-.012.573,1.807,1.807,0,0,1-.5.788,4.726,4.726,0,0,0-1.557,2.459,3.931,3.931,0,0,1-.067.564c-.059.218-.189.411-.269.623-.392,1.046.494,2.313-.046,3.288a5.936,5.936,0,0,1,.594,1.792,2.33,2.33,0,0,0,.161.69,3.577,3.577,0,0,0,.753.822,4.734,4.734,0,0,1,.939,3.2,2.165,2.165,0,0,1-.47,1.8,2.055,2.055,0,0,1-1.039.386,2.244,2.244,0,0,1-1.463-.1,2.349,2.349,0,0,1-.728-.771c-.385-.56-.771-1.119-1.137-1.693a4.51,4.51,0,0,1-.956-3,6.972,6.972,0,0,1-.809,3.127,4.3,4.3,0,0,1-2.433,2.049,3.121,3.121,0,0,1-3.035-.669,4.1,4.1,0,0,1-.647-.872,8.515,8.515,0,0,1-.956-2.432.945.945,0,0,1,.023-.668c.053-.094.134-.168.189-.261.185-.316.007-.714-.173-1.036-.274.026-.47-.3-.445-.571a2.41,2.41,0,0,1,.305-.763,3.859,3.859,0,0,0,.1-2.391,10.753,10.753,0,0,1-.391-2.4,4.485,4.485,0,0,0-1.068-2.348c-.263-.4-.569-.78-.8-1.2a3.883,3.883,0,0,1-.308-2.907,7.62,7.62,0,0,1,.643-1.435l.388-.727a1.2,1.2,0,0,1,.822-.7l2.681-1.057a4.033,4.033,0,0,0,.967-.484c.328-.247.572-.587.884-.85a.5.5,0,0,1,.352-.154c.251.022.34.339.366.587a11.586,11.586,0,0,0,.609,1.563c.756,2.976,2.357,5.722,2.8,8.76a31.837,31.837,0,0,1,1.618-3.487,2.892,2.892,0,0,0,.25-.506,2.159,2.159,0,0,0,.083-.786,10.27,10.27,0,0,0-.436-2.25C346.963,224.477,346.728,223.55,346.457,222.555Z" transform="translate(-320.13 -203.8)" fill="#3f3d56"/>
    <path id="Path_13366" data-name="Path 13366" d="M452.513,286.713c.052.5.1,1,.195,1.5.108.572.272,1.131.436,1.69a4.4,4.4,0,0,0,.34.908,1.165,1.165,0,0,1,.126.269,1.549,1.549,0,0,1-.13.7c-.169.7.338,1.488.019,2.137a4.079,4.079,0,0,0-.328.572,1.714,1.714,0,0,0,.039.754,4.567,4.567,0,0,1-.378,2.1l-.4,1.144a10.61,10.61,0,0,0-1.25-1.967c-.182-.211-.38-.407-.548-.63a4.421,4.421,0,0,1-.587-1.144,9.913,9.913,0,0,1-.607-3.02,2.066,2.066,0,0,1,.1-.869,4.636,4.636,0,0,1,.261-.47,3.8,3.8,0,0,0,.373-1.887,15.563,15.563,0,0,1,0-1.943,4.447,4.447,0,0,1,.47-1.542,2.188,2.188,0,0,1,.638-.795,1.148,1.148,0,0,1,.7-.229c.384.022.3.352.329.67Z" transform="translate(-421.077 -258.863)" fill="#3f3d56"/>
    <path id="Path_13367" data-name="Path 13367" d="M319.029,270.491q-.359,1.057-.648,2.132-.282,1.057-.5,2.125a4.55,4.55,0,0,0-.127.956,4.275,4.275,0,0,0,.191,1.1,27.389,27.389,0,0,0,3.687,7.6,6.844,6.844,0,0,1,1.562-1.425.335.335,0,0,0,.117-.117.318.318,0,0,0-.038-.275,12.626,12.626,0,0,1-1.321-2.607c-.089-.4-.093-.81-.194-1.2a12.936,12.936,0,0,1-.488-1.5c-.072-.571.117-1.193-.15-1.7a2.244,2.244,0,0,0,1.093-1.314,7.2,7.2,0,0,0,.526-1.727,5.2,5.2,0,0,0-.635-3.305,5.285,5.285,0,0,0-1.063-1.334c-.14-.126-.47-.486-.673-.483-.271.006-.358.445-.436.642C319.616,268.868,319.306,269.674,319.029,270.491Z" transform="translate(-304.864 -244.24)" fill="#3f3d56"/>
    <path id="Path_13368" data-name="Path 13368" d="M351.367,397.156c.035.026.075.061.066.1s-.043.053-.074.07a.911.911,0,0,0-.338.458,12.78,12.78,0,0,0-.51,1.349,5.914,5.914,0,0,0-.921-1.074,2.605,2.605,0,0,1-.71-.814c0-.009.615-.464.672-.513.173-.154.39-.58.568-.674.2-.106.395.309.548.475A4.661,4.661,0,0,0,351.367,397.156Z" transform="translate(-332.339 -357.762)" fill="#fbbebe"/>
    <path id="Path_13369" data-name="Path 13369" d="M395.624,153.491a.576.576,0,0,0-.146-.424.555.555,0,0,0-.352-.1,6.665,6.665,0,0,1-2.038-.137c-.425-.151-.788-.443-1.2-.623a1.212,1.212,0,0,0-1.28.075,1.833,1.833,0,0,0-.411.928,5.438,5.438,0,0,1-1.013,2.01,1.247,1.247,0,0,1-.693-.681,4.449,4.449,0,0,1,.1-3.309c.117-.362.248-.72.378-1.077l.286-.789a1.54,1.54,0,0,0,.982-.488l.123.3a1.562,1.562,0,0,0,.881-.311.477.477,0,0,0,.558.175c.205-.06.383-.175.587-.235a4.789,4.789,0,0,1,1.7.126,6.82,6.82,0,0,1,.727.021,1.907,1.907,0,0,1,1.361,1.4c.137.434.251.969.68,1.123.009.164-.282.2-.306.352a.27.27,0,0,0,.035.149l.393.844a.977.977,0,0,1-.568-.028C396.23,153.208,395.642,153.809,395.624,153.491Z" transform="translate(-367.048 -139.501)" fill="#192534"/>
    <path id="Path_13370" data-name="Path 13370" d="M614.874,177.09a15.416,15.416,0,0,1,.47,1.964,1.994,1.994,0,0,1-.151,1.467,14.257,14.257,0,0,1,3.875-4.376,3.538,3.538,0,0,1-.922-2.729,6.857,6.857,0,0,0-1.461.476c-.479.267-.918.6-1.386.883-.242.147-1.249.494-1.259.7,0,.135.4.548.475.69A5.357,5.357,0,0,1,614.874,177.09Z" transform="translate(-566.365 -161.262)" fill="#fbbebe"/>
    <path id="Path_13371" data-name="Path 13371" d="M612.879,723.434a1.82,1.82,0,0,0-1.86-.141,11.842,11.842,0,0,0-1.374,1.147,10.214,10.214,0,0,1-2.9.978.989.989,0,0,0-.642.47.834.834,0,0,0,.048.654,1.694,1.694,0,0,0,.805.83,3.366,3.366,0,0,0,1.423.224l4.2.049a34.449,34.449,0,0,1,3.875.191,1.451,1.451,0,0,0,.888-.068c.43-.235.479-.829.446-1.319a12.107,12.107,0,0,0-.822-3.616c-.051-.128-.117-.274-.26-.3a.423.423,0,0,0-.279.089,4.416,4.416,0,0,1-3.949.539" transform="translate(-559.317 -645.918)" fill="#949da0"/>
    <path id="Path_13372" data-name="Path 13372" d="M663.367,499.729a22.957,22.957,0,0,0,.365,8.246,14.39,14.39,0,0,0,.384,1.6c.189.6.444,1.174.621,1.776a14.607,14.607,0,0,1,.32,4.752l-.308,7.25a5.26,5.26,0,0,0,.134,1.81c.074.235.164.528-.022.687a.524.524,0,0,1-.248.1,3.835,3.835,0,0,1-2.466-.37l-.083-7.324a47.324,47.324,0,0,0-.4-6.755,39.39,39.39,0,0,1-.787-5.317,20.969,20.969,0,0,1,.9-5.554,2.135,2.135,0,0,1,.773-.939.95.95,0,0,1,.376-.228C663.064,499.422,663.28,499.61,663.367,499.729Z" transform="translate(-607.701 -449.031)" fill="#3f3d56"/>
    <path id="Path_13373" data-name="Path 13373" d="M663.367,499.729a22.957,22.957,0,0,0,.365,8.246,14.39,14.39,0,0,0,.384,1.6c.189.6.444,1.174.621,1.776a14.607,14.607,0,0,1,.32,4.752l-.308,7.25a5.26,5.26,0,0,0,.134,1.81c.074.235.164.528-.022.687a.524.524,0,0,1-.248.1,3.835,3.835,0,0,1-2.466-.37l-.083-7.324a47.324,47.324,0,0,0-.4-6.755,39.39,39.39,0,0,1-.787-5.317,20.969,20.969,0,0,1,.9-5.554,2.135,2.135,0,0,1,.773-.939.95.95,0,0,1,.376-.228C663.064,499.422,663.28,499.61,663.367,499.729Z" transform="translate(-607.701 -449.031)" opacity="0.1"/>
    <path id="Path_13374" data-name="Path 13374" d="M606.648,420.564c-.174.715.195,1.456.154,2.191a5.731,5.731,0,0,0-.117,1.326,6.016,6.016,0,0,0,.56,1.166,3.162,3.162,0,0,1,.19,1.043c.048.878.009,1.761-.024,2.636a25.939,25.939,0,0,0,.1,4.4,13.755,13.755,0,0,0,1.018,3.657,6.337,6.337,0,0,1,.379.985,7.029,7.029,0,0,1,.129.956,9.711,9.711,0,0,0,.83,3.019,10.891,10.891,0,0,1,.987,1.868c.157.665.052,1.366.166,2.038.083.5.287.971.4,1.464a17.4,17.4,0,0,1,.217,1.949c.211,1.879,1.065,3.757.555,5.58a2.491,2.491,0,0,0-.189,1.112,1.387,1.387,0,0,1,.085.546,2.583,2.583,0,0,1-.214.421.775.775,0,0,0,.216.814,2.312,2.312,0,0,0,.763.451,6.87,6.87,0,0,0,2.7.737.725.725,0,0,0,.332-.061.822.822,0,0,0,.324-.456l.481-1.191a.511.511,0,0,0,.036-.447.834.834,0,0,0-.2-.188c-.389-.328-.3-.939-.2-1.431a20.87,20.87,0,0,0,.437-3.84,41.805,41.805,0,0,0-.795-7.672,15.992,15.992,0,0,0-.587-2.615,6.428,6.428,0,0,1-.653-2.537,28.723,28.723,0,0,1,0-2.879c.171-.936.443-1.852.618-2.786a28.8,28.8,0,0,0,.352-3.68,3.561,3.561,0,0,1,.3-1.468c.137-.261.337-.484.491-.736.4-.656.46-1.47.84-2.137a7.467,7.467,0,0,0,.559-.932,2.606,2.606,0,0,0,.143-.829,9.859,9.859,0,0,0-.117-2.119,13.79,13.79,0,0,0-6.458-1.5,7.662,7.662,0,0,0-2.532.4A8.507,8.507,0,0,1,606.648,420.564Z" transform="translate(-559.799 -378.39)" fill="#3f3d56"/>
    <path id="Path_13375" data-name="Path 13375" d="M603,743.009c-.345.43-.322,1.044-.542,1.55a3.406,3.406,0,0,1-1.43,1.366l-3.523,2.231a.983.983,0,0,0-.47.48.769.769,0,0,0,.018.421,1.829,1.829,0,0,0,1.231,1.249,3.639,3.639,0,0,0,.952.1l1.584.021a9.275,9.275,0,0,0,1.445-.056c.439-.063.866-.189,1.3-.269.795-.144,1.612-.131,2.408-.271a12.739,12.739,0,0,0,1.442-.372,5.751,5.751,0,0,0,1.654-.694.858.858,0,0,0,.318-.343,1.013,1.013,0,0,0-.009-.621l-.756-3.323a1.981,1.981,0,0,0-.3-.776.677.677,0,0,0-.731-.276,1.549,1.549,0,0,0-.3.183,1.867,1.867,0,0,1-1.342.217,2.114,2.114,0,0,1-.925-.33c-.181-.149-.235-.38-.389-.55a1.1,1.1,0,0,0-1.638.065Z" transform="translate(-551.342 -663.636)" fill="#b2bcbf"/>
    <ellipse id="Ellipse_1309" data-name="Ellipse 1309" cx="4.242" cy="4.242" rx="4.242" ry="4.242" transform="translate(45.137 6.885)" fill="#fbbebe"/>
    <path id="Path_13376" data-name="Path 13376" d="M599.686,114.985c.406-.228.406-.884.822-1.1s.888.161,1.154.544a5,5,0,0,1,.792,1.863.938.938,0,0,0,.216.531.831.831,0,0,0,.514.168q.8.08,1.611.146a3.483,3.483,0,0,0,1.774-.17,1.292,1.292,0,0,0,.533-.441,1.988,1.988,0,0,0,.228-.6,14.062,14.062,0,0,0,.587-3.251,2.625,2.625,0,0,0-.25-1.327,2.7,2.7,0,0,1-.369-.7c-.053-.258.118-.587.385-.559a1.581,1.581,0,0,1-.7-.134.541.541,0,0,1-.295-.6c-.6.076-1.031-.513-1.5-.895a.405.405,0,0,0-.284-.117,1.029,1.029,0,0,0-.235.09c-.235.082-.48-.074-.721-.142-.646-.181-1.467.256-1.946-.214.046.3-.322.5-.625.494a2.565,2.565,0,0,0-.9-.016.587.587,0,0,1-.336.841l.142.31a.8.8,0,0,0-.616.578,7.809,7.809,0,0,0-.08,2.126A10.87,10.87,0,0,1,599.686,114.985Z" transform="translate(-553.58 -103.609)" fill="#192534"/>
    <path id="Path_13377" data-name="Path 13377" d="M598.122,194.435c-2.131,2.4-2.674,5.77-3.128,8.946l-.669,4.69c-.174,1.216-.352,2.433-.5,3.653a9.618,9.618,0,0,0-.089,2.516,13.73,13.73,0,0,0,.493,1.924,18.152,18.152,0,0,1,.7,5.106c.142-.418.634-.587,1.066-.681a17.239,17.239,0,0,1,10.786,1.152,21.367,21.367,0,0,0,.647-5.236c.235-2.5,1.044-4.931,1.283-7.431.088-.931.1-1.867.108-2.8a9.391,9.391,0,0,0-.129-2.054,8.618,8.618,0,0,0-.845-2.113,55.039,55.039,0,0,0-3.208-5.45q-.885-1.324-1.847-2.6-.487-.645-.995-1.275c-.328-.407-.47-.761-.99-.517A9.186,9.186,0,0,0,598.122,194.435Z" transform="translate(-548.396 -177.84)" fill="#5d676e"/>
    <path id="Path_13378" data-name="Path 13378" d="M617.126,374.755a11.509,11.509,0,0,1-1.558-.049,3.381,3.381,0,0,0-1.151,0,1.2,1.2,0,0,0-.447.22.337.337,0,0,0,.192.587l.4.035a1.129,1.129,0,0,1,.719.235.448.448,0,0,1,.146.283c.025.274-.213.423-.425.537a3.366,3.366,0,0,0-.829.552,1.149,1.149,0,0,0-.344.7.136.136,0,0,0,.2.126c.47-.235.776-.931,1.292-.815a2.092,2.092,0,0,0-1.134.872.526.526,0,0,0,.7.743,2.323,2.323,0,0,0,.221-.147,5.429,5.429,0,0,0,.931-.968,2.81,2.81,0,0,0-.324,2.508.25.25,0,0,0,.235.139c.136-.014.176-.142.2-.255a3.552,3.552,0,0,1,.267-1.068c.413-.749,1.432-.822,2.209-1.187a3.542,3.542,0,0,0,1.826-2.355,1.811,1.811,0,0,0,.046-.895,1.014,1.014,0,0,0-1.526-.5A3.158,3.158,0,0,1,617.126,374.755Z" transform="translate(-566.178 -338.213)" fill="#fbbebe"/>
    <path id="Path_13379" data-name="Path 13379" d="M630.085,226.729c.822,1.269,2.248,1.984,3.472,2.875a2.911,2.911,0,0,1,.768.73,2.506,2.506,0,0,1,.289,1.644,10.406,10.406,0,0,1-.554,2.16l-.513,1.532a9.491,9.491,0,0,1-1.28,2.782,1.174,1.174,0,0,0-.336.69.892.892,0,0,0,.15.42,2.827,2.827,0,0,0,1.8,1.282,1.37,1.37,0,0,0,.675,0,1.829,1.829,0,0,0,.776-.6,20.763,20.763,0,0,0,2.877-3.716,19.447,19.447,0,0,0,1.6-4.287,9.028,9.028,0,0,0,.352-1.659,6.063,6.063,0,0,0-.643-3.068,15.136,15.136,0,0,0-1.719-2.658,18.5,18.5,0,0,0-2.014-2.311c-1.278-1.194-2.84-1.9-4.55-1.219a2.889,2.889,0,0,0-1.767,2.758A4.2,4.2,0,0,0,630.085,226.729Z" transform="translate(-579.962 -203.329)" opacity="0.1"/>
    <path id="Path_13380" data-name="Path 13380" d="M633.688,224.082c.822,1.269,2.25,1.984,3.472,2.876a2.922,2.922,0,0,1,.764.735,2.506,2.506,0,0,1,.289,1.644,10.4,10.4,0,0,1-.555,2.16l-.513,1.526a9.5,9.5,0,0,1-1.28,2.782,1.176,1.176,0,0,0-.335.69.871.871,0,0,0,.15.419,2.826,2.826,0,0,0,1.794,1.283,1.374,1.374,0,0,0,.676,0,1.834,1.834,0,0,0,.776-.6,20.8,20.8,0,0,0,2.877-3.716,19.427,19.427,0,0,0,1.6-4.288,8.936,8.936,0,0,0,.352-1.658,6.082,6.082,0,0,0-.642-3.069,15.03,15.03,0,0,0-1.719-2.658,18.51,18.51,0,0,0-2.018-2.3c-1.276-1.193-2.839-1.9-4.549-1.218a2.889,2.889,0,0,0-1.768,2.758A4.2,4.2,0,0,0,633.688,224.082Z" transform="translate(-583.138 -201.004)" fill="#5d676e"/>
    <path id="Path_13381" data-name="Path 13381" d="M819.907,599.186a4.341,4.341,0,0,1-.094.911c-.012.056-.025.117-.038.166a2.862,2.862,0,0,1-2.4,2.378h-.117a2.835,2.835,0,0,1-2.522-2.434c-.009-.037-.018-.075-.026-.117a4.345,4.345,0,0,1-.094-.911c0-1.91,1.182-3.458,2.642-3.458S819.907,597.279,819.907,599.186Z" transform="translate(-743.393 -533.992)" fill="#3f3d56"/>
    <path id="Path_13382" data-name="Path 13382" d="M819.942,599.23a4.336,4.336,0,0,1-.094.911c-.012.056-.025.117-.038.166h-.117a5.363,5.363,0,0,1-.864-.117,5.264,5.264,0,0,1-.77.176,5.362,5.362,0,0,1-.6.056h-.2a5.461,5.461,0,0,1-.724-.048,5.3,5.3,0,0,1-1.135-.282,5.359,5.359,0,0,1-.613.164c-.009-.038-.018-.075-.026-.117a4.345,4.345,0,0,1-.094-.911c0-1.91,1.182-3.458,2.642-3.458S819.942,597.323,819.942,599.23Z" transform="translate(-743.429 -534.036)" opacity="0.1"/>
    <path id="Path_13383" data-name="Path 13383" d="M777.97,511.871a5.349,5.349,0,0,0-.575-2.42l-3.107.966,2.728-1.6a6.707,6.707,0,0,1-4.454-2.853l-4.462,1.389,3.66-2.152a5.369,5.369,0,0,0-8.454,2.864l3.822,4.4-4.146-3a7.774,7.774,0,1,0,14.774,4.327c0-.117,0-.235-.012-.352A5.359,5.359,0,0,0,777.97,511.871Z" transform="translate(-695.82 -453.118)" fill="#83c124"/>
    <path id="Path_13384" data-name="Path 13384" d="M777.816,569.589a14.312,14.312,0,0,0-4.971-.063c-1.866.309-3.773.987-5.6.492-1.071-.291-2-.965-3.042-1.34a5.774,5.774,0,0,0-3.141-.188,8.383,8.383,0,0,0,16.625,2.021c0-.117,0-.235-.012-.352A5.34,5.34,0,0,0,777.816,569.589Z" transform="translate(-695.759 -509.84)" opacity="0.1"/>
  </g>
</svg>
