<svg xmlns="http://www.w3.org/2000/svg" width="97.958" height="91.518" viewBox="0 0 97.958 91.518">
  <g id="Group_15953" data-name="Group 15953" transform="translate(0 0)" opacity="0.8" style="mix-blend-mode: normal;isolation: isolate">
    <g id="Group_15954" data-name="Group 15954" transform="translate(74.813 16.821)">
      <path id="Path_13430" data-name="Path 13430" d="M841.565,719.862c.034,3.61-22.711,3.94-23.145,0C818.386,716.253,841.131,715.922,841.565,719.862Z" transform="translate(-818.42 -647.999)" fill="#e6e6e6"/>
      <path id="Path_13431" data-name="Path 13431" d="M614.555,507.569l-1.69.922,1.076,3.535,1.69.154.922-2Z" transform="translate(-609.206 -448.236)" fill="#9f616a"/>
      <path id="Path_13432" data-name="Path 13432" d="M658.28,553.994v1.69l2.612-.154-.036-1.392Z" transform="translate(-647.707 -487.592)" fill="#9f616a"/>
      <path id="Path_13433" data-name="Path 13433" d="M619.929,374.348l.922,11.526,2.92,16.9,4.61-.615-1.537-13.37.615-12.294Z" transform="translate(-615.196 -335.3)" fill="#2f2e41"/>
      <path id="Path_13434" data-name="Path 13434" d="M861.8,463.6l-11.065.154-1.229,8.452,7.53,3.534,1.844,6.762-9.374,9.989,3.688,4.61a142.39,142.39,0,0,1,9.067-11.065c3.842-4,2-16.136,2-16.136Z" transform="translate(-844.775 -433.156)" fill="#2f2e41"/>
      <ellipse id="Ellipse_1310" data-name="Ellipse 1310" cx="3.381" cy="3.381" rx="3.381" ry="3.381" transform="translate(7.039 1.859)" fill="#9f616a"/>
      <path id="Path_13435" data-name="Path 13435" d="M878.777,304.665v3.381l2.305,3.688s3.534-2.612,2.766-3.227-.922-5.379-.922-5.379Z" transform="translate(-869.587 -297.12)" fill="#9f616a"/>
      <path id="Path_13436" data-name="Path 13436" d="M636.363,181.913l-2.305,2.766.922,19.209,7.223-.154,1.229-16.75-1.537-4.3-1.054-1.434-1.866,2.817Z" transform="translate(-627.173 -171.602)" fill="#d0cde1"/>
      <path id="Path_13437" data-name="Path 13437" d="M825.466,358.487l-1.69,6.454,1.69,6.454-2.766,3.688L820.241,363.4s1.844-9.528,2-10.6.461-1.229.461-1.229l1.229.154Z" transform="translate(-819.963 -338.188)" fill="#2f2e41"/>
      <path id="Path_13438" data-name="Path 13438" d="M705.714,215.178l1.076,2,.307,3.381-.615,3.842,2.151,3.535,2.151-9.682L708.48,205.8h-.922Z" transform="translate(-687.918 -192.42)" fill="#2f2e41"/>
      <path id="Path_13439" data-name="Path 13439" d="M831.846,652.327s-2.151.615-2.92.768.461,3.073.461,3.073.768,4,.922,4.764,1.229,3.381,2.612,3.688.461-5.378.461-5.378a13.946,13.946,0,0,0,.615-2.459c0-.615-.922-.307-.922-.307C830.617,656.169,831.846,652.327,831.846,652.327Z" transform="translate(-827.113 -593.148)" fill="#2f2e41"/>
      <path id="Path_13440" data-name="Path 13440" d="M882.7,709.418c.154.922-.154.922,2.3,1.229s1.844-1.69,1.844-1.69a12.909,12.909,0,0,0-.615-2.766c-.461-1.229-2.92.307-2.92.307A8.371,8.371,0,0,0,882.7,709.418Z" transform="translate(-872.896 -638.406)" fill="#2f2e41"/>
      <path id="Path_13441" data-name="Path 13441" d="M867.53,269.787l.08,1.367a15.474,15.474,0,0,0,1.145-4.548c.154-2.305-2.459-2.766-4-2.92s-4.149.922-4.149,2.151,2.766.922,3.842.615,1.537,2.305,1.537,2.305l.615.154Z" transform="translate(-854.186 -263.671)" fill="#2f2e41"/>
      <path id="Path_13442" data-name="Path 13442" d="M643.24,186.708l.907-1.088,2.612,2.151-2.612,1.844Z" transform="translate(-634.956 -175.309)" fill="#d0cde1"/>
      <path id="Path_13443" data-name="Path 13443" d="M669.274,182.966l-1.076-1.383-1.844,2.766,2.305,1.69Z" transform="translate(-654.551 -171.887)" fill="#d0cde1"/>
      <path id="Path_13444" data-name="Path 13444" d="M839.549,342.244l.615,5.84-1.229,3.535L838.166,355s0,3.227,3.073,3.381,5.686-9.681,5.686-9.681.461,2.151.768,3.381,5.532,6.147,5.532,6.147,1.229-.154,2.305-2.612-2.151-4.764-2.151-4.764l-.922-3.227.307-4,2.151-10.45-6.378-3.3.692,8.836-2.305,6.915-3.458-15.291-1.153.845-4.918,2Z" transform="translate(-834.508 -319.793)" fill="#2f2e41"/>
    </g>
    <path id="Path_13445" data-name="Path 13445" d="M293.219,245.091c-.3,0-.611,0-.913-.014l.009-.3c.3.009.6.013.9.014s.607,0,.912-.015l.01.3C293.833,245.086,293.523,245.091,293.219,245.091Zm-2.744-.129c-.606-.057-1.218-.135-1.82-.231l.048-.3c.595.095,1.2.172,1.8.229Zm5.5,0-.029-.3c.6-.057,1.205-.135,1.8-.231l.048.3C297.19,244.823,296.577,244.9,295.971,244.959Zm-9.117-.575c-.594-.135-1.191-.29-1.775-.463l.086-.292c.578.171,1.169.325,1.756.458Zm12.737-.008-.068-.3c.589-.134,1.179-.289,1.756-.46l.087.292C300.784,244.084,300.186,244.241,299.592,244.376Zm-16.254-1.032c-.573-.21-1.146-.442-1.7-.689l.123-.278c.551.244,1.118.473,1.685.681Zm19.769-.012-.105-.286c.563-.207,1.128-.437,1.679-.681l.124.278C304.247,242.891,303.676,243.123,303.107,243.332Zm-23.127-1.474c-.539-.281-1.077-.585-1.6-.9l.158-.26c.517.314,1.049.614,1.583.892Zm26.475-.011-.141-.27c.532-.278,1.063-.578,1.579-.891l.158.26C307.53,241.263,306.993,241.566,306.455,241.847Zm-29.613-1.892c-.5-.348-.994-.718-1.471-1.1l.19-.238c.472.376.961.742,1.455,1.086Zm32.745-.011-.175-.249c.494-.345.983-.711,1.453-1.086l.19.238C310.58,239.226,310.086,239.6,309.587,239.944Zm-35.613-2.277c-.451-.41-.9-.839-1.319-1.276l.219-.212c.419.432.858.857,1.3,1.262Zm38.478-.011-.2-.225c.445-.4.884-.83,1.3-1.263l.219.212C313.345,236.818,312.9,237.248,312.451,237.657Zm-41.031-2.622c-.4-.463-.78-.945-1.145-1.432l.244-.183c.361.482.742.959,1.133,1.417ZM315,235.023l-.232-.2c.391-.459.772-.936,1.133-1.419l.244.182C315.784,234.076,315.4,234.559,315,235.023ZM269.224,232.1c-.333-.51-.654-1.037-.953-1.566l.265-.15c.3.523.613,1.045.943,1.549Zm47.977-.017-.255-.166c.33-.506.647-1.028.943-1.552l.265.15C317.854,231.045,317.533,231.573,317.2,232.084Zm-49.78-3.173c-.265-.548-.515-1.111-.744-1.674l.282-.114c.226.557.474,1.114.736,1.656ZM319,228.887l-.274-.132c.262-.543.51-1.1.736-1.661l.282.114C319.519,227.773,319.269,228.338,319,228.887Zm-52.963-3.371c-.193-.578-.369-1.17-.523-1.759l.295-.077c.153.582.327,1.168.517,1.74Zm54.342-.032-.289-.1c.189-.571.363-1.157.515-1.74l.295.077C320.75,224.314,320.574,224.906,320.383,225.483Zm-55.274-3.515c-.116-.6-.215-1.207-.293-1.811l.3-.039c.077.6.174,1.2.29,1.792Zm56.2-.033-.3-.058c.114-.591.211-1.194.287-1.792l.3.039C321.524,220.729,321.426,221.338,321.31,221.935Zm-56.67-3.6c-.039-.607-.059-1.224-.06-1.834h.3c0,.6.021,1.214.059,1.814Zm57.135-.034-.3-.019c.038-.6.057-1.21.057-1.814V216.4h.3v.066C321.832,217.075,321.813,217.692,321.775,218.3Zm-56.835-3.614-.3-.019c.038-.608.1-1.223.172-1.826l.3.038C265.034,213.475,264.977,214.082,264.94,214.684Zm56.527-.1c-.04-.6-.1-1.21-.176-1.806l.3-.039c.078.6.138,1.217.178,1.826Zm-56.072-3.5-.3-.058c.115-.6.251-1.2.4-1.789l.295.077C265.643,209.9,265.509,210.494,265.4,211.085Zm55.6-.1c-.116-.592-.253-1.187-.406-1.769l.294-.078c.155.588.293,1.19.411,1.788Zm-54.69-3.413-.289-.1c.191-.579.4-1.159.633-1.725l.282.114C266.708,206.427,266.5,207,266.309,207.574Zm53.764-.095c-.191-.572-.4-1.144-.631-1.7l.282-.115c.23.564.444,1.142.638,1.72Zm-52.4-3.274-.275-.132c.264-.549.55-1.1.849-1.629l.265.149C268.213,203.119,267.93,203.661,267.669,204.2Zm51.035-.083c-.262-.541-.546-1.081-.843-1.605l.265-.15c.3.53.587,1.076.852,1.623ZM269.45,201.04l-.255-.166c.332-.51.685-1.017,1.05-1.506l.244.182C270.128,200.034,269.778,200.535,269.45,201.04Zm47.466-.072c-.329-.5-.68-1-1.042-1.485l.244-.183c.366.487.72.992,1.053,1.5Zm-45.3-2.838-.232-.2c.394-.464.809-.921,1.232-1.359l.219.212C272.421,197.218,272.01,197.671,271.62,198.13Zm43.119-.063c-.392-.458-.8-.909-1.223-1.341l.218-.212c.424.437.84.893,1.236,1.355Zm-40.6-2.547-.2-.225c.451-.41.92-.811,1.395-1.191l.19.238C275.052,194.718,274.588,195.114,274.142,195.521Zm38.068-.055c-.447-.4-.912-.8-1.384-1.175l.19-.238c.477.38.947.779,1.4,1.188Zm-35.236-2.211L276.8,193c.5-.349,1.015-.687,1.534-1l.158.26C277.978,192.574,277.467,192.908,276.974,193.254Zm32.4-.048c-.5-.345-1.008-.678-1.523-.99l.158-.261c.52.315,1.039.651,1.539,1Zm-29.3-1.838-.141-.27c.538-.282,1.093-.551,1.649-.8l.124.278C281.152,190.822,280.6,191.088,280.07,191.368Zm26.193-.042c-.535-.278-1.086-.543-1.638-.787l.123-.279c.558.246,1.115.514,1.656.795Zm-22.883-1.431-.106-.286c.571-.211,1.156-.407,1.74-.581l.087.292C284.524,189.492,283.945,189.685,283.38,189.894Zm19.559-.035c-.566-.207-1.146-.4-1.724-.568L301.3,189c.584.172,1.17.365,1.742.575Zm-16.082-1-.068-.3c.592-.136,1.2-.254,1.8-.352l.049.3C288.042,188.607,287.443,188.724,286.857,188.858Zm12.6-.022c-.587-.132-1.187-.247-1.782-.342l.048-.3c.6.1,1.208.212,1.8.345Zm-9.021-.559-.029-.3c.6-.059,1.22-.1,1.83-.119l.01.3C291.645,188.179,291.036,188.219,290.438,188.277Zm5.438-.009c-.6-.056-1.209-.093-1.811-.111l.009-.3c.609.018,1.225.056,1.831.113Z" transform="translate(-259.089 -181.094)" fill="#5d676e"/>
    <ellipse id="Ellipse_1311" data-name="Ellipse 1311" cx="7.125" cy="7.5" rx="7.125" ry="7.5" transform="translate(26.25 0)" fill="#793185"/>
    <ellipse id="Ellipse_1312" data-name="Ellipse 1312" cx="7.5" cy="7.5" rx="7.5" ry="7.5" transform="translate(53.249 19.5)" fill="#1691c7"/>
    <ellipse id="Ellipse_1313" data-name="Ellipse 1313" cx="7.125" cy="7.125" rx="7.125" ry="7.125" transform="translate(45 49.499)" fill="#f99d27"/>
    <ellipse id="Ellipse_1314" data-name="Ellipse 1314" cx="7.125" cy="7.125" rx="7.125" ry="7.125" transform="translate(10.5 50.999)" fill="#3a3768"/>
    <ellipse id="Ellipse_1315" data-name="Ellipse 1315" cx="7.125" cy="7.5" rx="7.125" ry="7.5" transform="translate(0 19.5)" fill="#83c124"/>
    <path id="Path_13446" data-name="Path 13446" d="M431.175,169.96h-2.5a.856.856,0,0,1-.856-.856v-2.5a.071.071,0,0,0-.071-.071h-1.64a1.141,1.141,0,0,0-1.141,1.141v5.706a1.141,1.141,0,0,0,1.141,1.141h3.994a1.141,1.141,0,0,0,1.141-1.141v-3.352A.071.071,0,0,0,431.175,169.96Zm-1.64,2.853h-2.853a.285.285,0,1,1,0-.571h2.853a.285.285,0,1,1,0,.571Zm0-1.426h-2.853a.285.285,0,1,1,0-.571h2.853a.285.285,0,1,1,0,.571Z" transform="translate(-395.058 -163.025)" fill="#fff"/>
    <path id="Path_13447" data-name="Path 13447" d="M450.078,170.54l-2.564-2.564a.036.036,0,0,0-.061.025v2.315a.285.285,0,0,0,.285.285h2.315a.036.036,0,0,0,.025-.061Z" transform="translate(-414.117 -164.236)" fill="#fff"/>
    <path id="Path_13448" data-name="Path 13448" d="M575.267,507.508a.379.379,0,1,0,.268.111A.379.379,0,0,0,575.267,507.508Z" transform="translate(-522.148 -452.078)" fill="#fff"/>
    <path id="Path_13449" data-name="Path 13449" d="M556.006,496.119h0a.29.29,0,0,0-.215-.217,3.334,3.334,0,0,0-1.828.3,5.879,5.879,0,0,0-1.912,1.211,4.556,4.556,0,0,0-.42.481,1.862,1.862,0,0,0-.832.134,2.171,2.171,0,0,0-1.117,1.665.355.355,0,0,0,.386.412h0l.914-.1c0,.012,0,.022,0,.032a.488.488,0,0,0,.141.294l.446.446a.487.487,0,0,0,.294.141l.031,0-.1.913v0a.355.355,0,0,0,.317.39l.033,0a.364.364,0,0,0,.059,0,2.154,2.154,0,0,0,1.665-1.118,1.88,1.88,0,0,0,.134-.829,4.481,4.481,0,0,0,.482-.42,5.835,5.835,0,0,0,1.212-1.9A3.389,3.389,0,0,0,556.006,496.119Zm-1.521,2.485a.835.835,0,1,1,0-1.181h0a.828.828,0,0,1,.009,1.172Z" transform="translate(-500.775 -442.206)" fill="#fff"/>
    <path id="Path_13450" data-name="Path 13450" d="M552.786,524.948a.227.227,0,0,0-.156.038c-.091.062-.182.123-.274.183a.212.212,0,0,1-.3-.284l.173-.3a.227.227,0,0,0-.215-.354.87.87,0,0,0-.506.248c-.052.052-.21.21-.3.814a5.076,5.076,0,0,0-.046.522.227.227,0,0,0,.221.233h.012a5.1,5.1,0,0,0,.523-.046c.6-.085.762-.244.814-.3a.86.86,0,0,0,.247-.508A.227.227,0,0,0,552.786,524.948Z" transform="translate(-502.039 -466.254)" fill="#fff"/>
    <path id="Path_13451" data-name="Path 13451" d="M323.353,532.986h-.518a.389.389,0,0,1-.389-.389v-2.333a.389.389,0,0,1,.389-.389h.518a.389.389,0,0,1,.389.389V532.6A.389.389,0,0,1,323.353,532.986Z" transform="translate(-308.143 -471.039)" fill="#fff"/>
    <path id="Path_13452" data-name="Path 13452" d="M347.19,524.326h-.519a.389.389,0,0,1-.389-.389v-3.889a.389.389,0,0,1,.389-.389h.519a.389.389,0,0,1,.389.389v3.889A.389.389,0,0,1,347.19,524.326Z" transform="translate(-328.351 -462.379)" fill="#fff"/>
    <path id="Path_13453" data-name="Path 13453" d="M359.109,514.222h-.518a.389.389,0,0,1-.389-.389v-5.7a.389.389,0,0,1,.389-.389h.518a.389.389,0,0,1,.389.389v5.7A.389.389,0,0,1,359.109,514.222Z" transform="translate(-338.455 -452.275)" fill="#fff"/>
    <path id="Path_13454" data-name="Path 13454" d="M335.271,507.005h-.519a.389.389,0,0,1-.389-.389v-7a.389.389,0,0,1,.389-.389h.519a.389.389,0,0,1,.389.389v7A.389.389,0,0,1,335.271,507.005Z" transform="translate(-318.247 -445.058)" fill="#fff"/>
    <path id="Path_13455" data-name="Path 13455" d="M608.965,316.732l-.37-.371a.454.454,0,0,0-.641,0l-2.575,2.377a.481.481,0,0,0-.161.327.456.456,0,0,0,.131.34l.553.559h0a.458.458,0,0,0,.322.134h.017a.476.476,0,0,0,.329-.159l2.394-2.564a.454.454,0,0,0,0-.642Z" transform="translate(-547.859 -289.924)" fill="#fff"/>
    <path id="Path_13456" data-name="Path 13456" d="M624.548,302.136l0,0-.486-.481a.3.3,0,0,0-.217-.089.31.31,0,0,0-.181.059c0-.006,0-.012,0-.017a.518.518,0,0,0-.074-.358,3.657,3.657,0,0,0-.352-.408h0a3.84,3.84,0,0,0-1.23-.794,1.979,1.979,0,0,0-.753-.148,1.434,1.434,0,0,0-.919.322,1.686,1.686,0,0,0-.2.23.227.227,0,0,0,.265.345,1.046,1.046,0,0,1,.122-.037.9.9,0,0,1,.262-.016,1.1,1.1,0,0,1,.506.186.729.729,0,0,1,.259.583,1.514,1.514,0,0,1-.284.489.227.227,0,0,0,.021.3l.488.488a.227.227,0,0,0,.312.009c.138-.123.348-.309.422-.355a.529.529,0,0,1,.209-.082.272.272,0,0,1,.16.034.018.018,0,0,1,0,.013l-.026.025,0,0a.305.305,0,0,0,0,.432h0l.486.481a.3.3,0,0,0,.217.089.308.308,0,0,0,.216-.088l.787-.778.008-.008a.31.31,0,0,0,0-.423Z" transform="translate(-560.465 -276.077)" fill="#fff"/>
    <path id="Path_13457" data-name="Path 13457" d="M282.461,305.317a.284.284,0,0,1-.2-.485l.651-.651-.651-.651a.284.284,0,1,1,.4-.4l.852.852a.284.284,0,0,1,0,.4l-.852.852A.283.283,0,0,1,282.461,305.317Z" transform="translate(-274.006 -278.747)" fill="#fff"/>
    <path id="Path_13458" data-name="Path 13458" d="M252.611,310.913a.284.284,0,0,1-.284-.284v-.284a1.713,1.713,0,0,1,1.7-1.7h3.694a.284.284,0,0,1,0,.568h-3.693a1.143,1.143,0,0,0-1.136,1.137v.283a.284.284,0,0,1-.284.284Z" transform="translate(-248.702 -283.491)" fill="#fff"/>
    <path id="Path_13459" data-name="Path 13459" d="M262.791,325.838a.283.283,0,0,1-.2-.083l-.852-.852a.284.284,0,0,1,0-.4l.852-.852a.284.284,0,1,1,.4.4l-.651.651.651.651a.284.284,0,0,1-.2.485Z" transform="translate(-256.61 -296.144)" fill="#fff"/>
    <path id="Path_13460" data-name="Path 13460" d="M263.8,320.241a.284.284,0,0,1,0-.568H267.5a1.143,1.143,0,0,0,1.136-1.137v-.283a.284.284,0,1,1,.568,0v.284a1.713,1.713,0,0,1-1.7,1.7Z" transform="translate(-258.191 -291.399)" fill="#fff"/>
  </g>
</svg>
