<svg xmlns="http://www.w3.org/2000/svg" width="119" height="108.926" viewBox="0 0 119 108.926">
  <g id="learning_statistics_empty_state_illustration" data-name="learning statistics empty state illustration" transform="translate(-20.5 -52.483)">
    <g id="Group_119001" data-name="Group 119001" transform="translate(115.602 80.565)">
      <path id="Path_88031" data-name="Path 88031" d="M383.838,164.558h20.793s-1.838-3.346-7.191-2.859c-5.112.465-5.372-1.646-7.971-1.906S384.7,161.526,383.838,164.558Z" transform="translate(-383.838 -159.77)" fill="#f5f5f5"/>
    </g>
    <g id="Group_119002" data-name="Group 119002" transform="translate(26.28 69.243)">
      <path id="Path_88032" data-name="Path 88032" d="M42.58,121.3H63.373s-1.839-3.346-7.191-2.859c-5.112.465-5.372-1.646-7.971-1.906S43.446,118.269,42.58,121.3Z" transform="translate(-42.58 -116.513)" fill="#f5f5f5"/>
    </g>
    <g id="Group_119003" data-name="Group 119003" transform="translate(63.804 52.483)">
      <path id="Path_88033" data-name="Path 88033" d="M185.943,58.526h26.241s-2.32-4.223-9.075-3.608c-6.451.587-6.779-2.077-10.059-2.405S187.036,54.7,185.943,58.526Z" transform="translate(-185.943 -52.483)" fill="#e0e0e0"/>
    </g>
    <g id="Group_119021" data-name="Group 119021" transform="translate(121.309 131.881)">
      <g id="Group_119005" data-name="Group 119005">
        <g id="Group_119004" data-name="Group 119004">
          <path id="Path_88034" data-name="Path 88034" d="M410.255,380.3c-3.575-2.276-4.555-6.744-4.591-10.8a4.4,4.4,0,0,1,.185-1.992,1.376,1.376,0,0,1,1.645-.785c.512.215.755.789,1.057,1.259a3.956,3.956,0,0,0,1.649,1.445,1.507,1.507,0,0,0,1.392.066c.569-.346.6-1.154.57-1.826q-.092-1.878-.184-3.755a6.266,6.266,0,0,1,.117-2,2.086,2.086,0,0,1,1.249-1.465,1.265,1.265,0,0,1,1.6.78,6.235,6.235,0,0,1,.055.836.707.707,0,0,0,.442.647.812.812,0,0,0,.725-.34,8.937,8.937,0,0,0,1.5-2.49,12.405,12.405,0,0,1,1.389-2.562,3.636,3.636,0,0,1,2.4-1.486,2.177,2.177,0,0,1,2.294,1.388,3.261,3.261,0,0,1-.8,2.714,15,15,0,0,1-2.995,3.11,1.236,1.236,0,0,0-.5.584c-.127.454.317.881.765,1.009a7.789,7.789,0,0,0,1.575.109,1.512,1.512,0,0,1,1.323.733c.3.675-.239,1.419-.784,1.915a12.852,12.852,0,0,1-3.708,2.357,4.337,4.337,0,0,0-1.383.747,1.244,1.244,0,0,0-.337,1.441,1.267,1.267,0,0,0,1.4.47,8.956,8.956,0,0,0,1.45-.626,2.353,2.353,0,0,1,2.729.4,2.128,2.128,0,0,1,.307,1.87,4.9,4.9,0,0,1-.947,1.7,12.928,12.928,0,0,1-5.35,4.112,8.876,8.876,0,0,1-6.247.433" transform="translate(-405.641 -355.821)" fill="#e8505b"/>
        </g>
      </g>
      <g id="Group_119008" data-name="Group 119008" transform="translate(4.69 0.519)">
        <g id="Group_119007" data-name="Group 119007">
          <g id="Group_119006" data-name="Group 119006">
            <path id="Path_88035" data-name="Path 88035" d="M423.558,384.765a29.533,29.533,0,0,1,.86-5.584,60.243,60.243,0,0,1,2.112-6.583l.642-1.7c.212-.556.422-1.109.661-1.636a30.173,30.173,0,0,1,1.547-2.95c.537-.915,1.081-1.763,1.595-2.552s1.01-1.515,1.489-2.157a23.86,23.86,0,0,1,2.483-2.861c.319-.314.574-.549.749-.706l.2-.177a.5.5,0,0,1,.071-.057.455.455,0,0,1-.062.067l-.192.186c-.169.163-.419.4-.732.722a25.229,25.229,0,0,0-2.447,2.879c-.473.644-.962,1.371-1.473,2.161s-1.049,1.641-1.583,2.554a30.433,30.433,0,0,0-1.534,2.942c-.237.525-.445,1.072-.657,1.63l-.641,1.7a61.745,61.745,0,0,0-2.117,6.567,30.025,30.025,0,0,0-.883,5.56" transform="translate(-423.558 -357.804)" fill="#263238"/>
          </g>
        </g>
      </g>
      <g id="Group_119011" data-name="Group 119011" transform="translate(7.701 4.626)">
        <g id="Group_119010" data-name="Group 119010">
          <g id="Group_119009" data-name="Group 119009">
            <path id="Path_88036" data-name="Path 88036" d="M436.363,380.842a1.349,1.349,0,0,1-.078-.284c-.043-.184-.1-.453-.159-.785-.124-.665-.263-1.589-.413-2.608s-.3-1.939-.435-2.6c-.066-.331-.122-.6-.163-.782a1.328,1.328,0,0,1-.05-.29,1.355,1.355,0,0,1,.1.278c.055.181.125.446.2.775.156.659.322,1.58.472,2.6s.277,1.917.377,2.612l.12.791A1.366,1.366,0,0,1,436.363,380.842Z" transform="translate(-435.063 -373.493)" fill="#263238"/>
          </g>
        </g>
      </g>
      <g id="Group_119014" data-name="Group 119014" transform="translate(9.001 9.985)">
        <g id="Group_119013" data-name="Group 119013">
          <g id="Group_119012" data-name="Group 119012">
            <path id="Path_88037" data-name="Path 88037" d="M448.6,393.975a1.9,1.9,0,0,1-.343.056c-.221.029-.54.07-.934.132-.787.119-1.869.322-3.053.6s-2.244.576-3,.813c-.382.116-.688.218-.9.287a.174.174,0,1,1-.016-.046c.207-.083.51-.2.889-.326.756-.26,1.817-.571,3-.851a30.507,30.507,0,0,1,3.069-.564c.4-.052.718-.079.941-.093A1.812,1.812,0,0,1,448.6,393.975Z" transform="translate(-440.028 -393.97)" fill="#263238"/>
          </g>
        </g>
      </g>
      <g id="Group_119017" data-name="Group 119017" transform="translate(0.828 10.888)">
        <g id="Group_119016" data-name="Group 119016">
          <g id="Group_119015" data-name="Group 119015">
            <path id="Path_88038" data-name="Path 88038" d="M413.625,408.265a.43.43,0,0,1-.064-.1l-.161-.306c-.139-.266-.329-.657-.559-1.143-.459-.972-1.051-2.334-1.684-3.846s-1.212-2.878-1.65-3.858l-.522-1.159-.141-.316a.449.449,0,0,1-.041-.114.462.462,0,0,1,.064.1l.161.306c.139.266.329.657.559,1.143.459.972,1.051,2.334,1.684,3.846s1.211,2.877,1.65,3.857l.522,1.159.141.316A.442.442,0,0,1,413.625,408.265Z" transform="translate(-408.804 -397.42)" fill="#263238"/>
          </g>
        </g>
      </g>
      <g id="Group_119020" data-name="Group 119020" transform="translate(5.65 17.542)">
        <g id="Group_119019" data-name="Group 119019">
          <g id="Group_119018" data-name="Group 119018">
            <path id="Path_88039" data-name="Path 88039" d="M438.543,422.839a.447.447,0,0,1-.112.052l-.329.126-1.212.451c-1.023.381-2.43.923-3.985,1.525s-2.969,1.132-4,1.492c-.516.18-.934.322-1.226.414l-.336.1a.443.443,0,0,1-.12.028.475.475,0,0,1,.112-.052l.328-.126,1.212-.451c1.023-.381,2.431-.923,3.985-1.525s2.968-1.132,4-1.491c.516-.18.934-.322,1.226-.414l.336-.1A.446.446,0,0,1,438.543,422.839Z" transform="translate(-427.225 -422.838)" fill="#263238"/>
          </g>
        </g>
      </g>
    </g>
    <g id="Group_119025" data-name="Group 119025" transform="translate(20.5 151.177)">
      <path id="Path_88040" data-name="Path 88040" d="M20.879,429.607a2.342,2.342,0,0,1,1.806.321,4.134,4.134,0,0,1,1.285,1.358,7.3,7.3,0,0,1,.888,3.631,4.942,4.942,0,0,1-3.045-1.708c-.866-.914-1.877-3.091-.934-3.6" transform="translate(-20.5 -429.542)" fill="#e8505b"/>
      <path id="Path_88041" data-name="Path 88041" d="M43.439,442.383a2,2,0,0,1-.676-1.889,2.653,2.653,0,0,1,1.152-1.7,1.117,1.117,0,0,1,.913-.232.855.855,0,0,1,.549.67,1.733,1.733,0,0,1-.109.894,3.436,3.436,0,0,1-1.829,2.255" transform="translate(-36.913 -436.182)" fill="#e8505b"/>
      <g id="Group_119022" data-name="Group 119022" transform="translate(6.481 3.945)">
        <path id="Path_88042" data-name="Path 88042" d="M46.531,450.721a.922.922,0,0,1-.135-.218c-.078-.144-.188-.355-.315-.619a8.581,8.581,0,0,1-.748-2.172,4.3,4.3,0,0,1,.182-2.285,2.818,2.818,0,0,1,.33-.618.8.8,0,0,1,.168-.194,5.985,5.985,0,0,0-.408.845,4.513,4.513,0,0,0-.138,2.229,9.944,9.944,0,0,0,.7,2.156A7.734,7.734,0,0,1,46.531,450.721Z" transform="translate(-45.26 -444.614)" fill="#263238"/>
      </g>
      <g id="Group_119023" data-name="Group 119023" transform="translate(1.295 1.656)">
        <path id="Path_88043" data-name="Path 88043" d="M25.447,435.867a2.473,2.473,0,0,1,.293.3c.182.2.44.5.755.865.631.736,1.485,1.768,2.4,2.93s1.718,2.235,2.286,3.02c.284.393.51.713.663.937a2.492,2.492,0,0,1,.226.355,2.459,2.459,0,0,1-.269-.324l-.7-.911c-.587-.77-1.4-1.832-2.315-2.994s-1.756-2.2-2.367-2.952L25.7,436.2A2.468,2.468,0,0,1,25.447,435.867Z" transform="translate(-25.446 -435.867)" fill="#263238"/>
      </g>
      <path id="Path_88044" data-name="Path 88044" d="M27.864,456.144a4.676,4.676,0,0,0-4.193-.813c-.361.109-.761.329-.8.7s.316.67.655.838a3.994,3.994,0,0,0,4.386-.639" transform="translate(-22.25 -448.443)" fill="#e8505b"/>
      <g id="Group_119024" data-name="Group 119024" transform="translate(2.317 7.405)">
        <path id="Path_88045" data-name="Path 88045" d="M29.354,458a.842.842,0,0,1,.235-.07,1.971,1.971,0,0,1,.282-.052,3.256,3.256,0,0,1,.379-.038,4.928,4.928,0,0,1,.991.043,5.257,5.257,0,0,1,2.247.889,4.909,4.909,0,0,1,.753.647,3.31,3.31,0,0,1,.25.287,1.977,1.977,0,0,1,.17.231.844.844,0,0,1,.123.212c-.022.016-.214-.275-.612-.662a5.513,5.513,0,0,0-.755-.611,5.564,5.564,0,0,0-2.2-.869,5.476,5.476,0,0,0-.969-.071C29.7,457.95,29.359,458.03,29.354,458Z" transform="translate(-29.354 -457.834)" fill="#263238"/>
      </g>
    </g>
    <path id="Path_88046" data-name="Path 88046" d="M80.5,120.966,151.659,84.3l-4.566-6.444,23.243-2.09L159.854,94.582l-4.874-6.1-72.1,39.6Z" transform="translate(-44.297 -17.187)" fill="#e8505b"/>
    <g id="Group_119026" data-name="Group 119026" transform="translate(27.69 129.837)">
      <rect id="Rectangle_19536" data-name="Rectangle 19536" width="16.39" height="31.572" transform="translate(4.467)" fill="#263238"/>
      <rect id="Rectangle_19537" data-name="Rectangle 19537" width="16.39" height="31.572" fill="#455a64"/>
    </g>
    <g id="Group_119027" data-name="Group 119027" transform="translate(52.782 119.306)">
      <rect id="Rectangle_19538" data-name="Rectangle 19538" width="16.39" height="42.103" transform="translate(4.952)" fill="#263238"/>
      <rect id="Rectangle_19539" data-name="Rectangle 19539" width="16.39" height="42.103" transform="translate(0)" fill="#455a64"/>
    </g>
    <g id="Group_119028" data-name="Group 119028" transform="translate(79.117 105.968)">
      <rect id="Rectangle_19540" data-name="Rectangle 19540" width="16.39" height="55.441" transform="translate(4.923)" fill="#263238"/>
      <rect id="Rectangle_19541" data-name="Rectangle 19541" width="16.39" height="55.441" fill="#455a64"/>
    </g>
    <g id="Group_119029" data-name="Group 119029" transform="translate(103.931 94.286)">
      <rect id="Rectangle_19542" data-name="Rectangle 19542" width="16.39" height="67.123" transform="translate(6.528)" fill="#263238"/>
      <rect id="Rectangle_19543" data-name="Rectangle 19543" width="16.39" height="67.123" transform="translate(0)" fill="#455a64"/>
    </g>
  </g>
</svg>
